<svg width="161" height="48" viewBox="0 0 161 48" fill="none" xmlns="http://www.w3.org/2000/svg">
<g clip-path="url(#clip0_6328_4199)">
<path d="M48.0038 -0.00195312H0V48.0018H48.0038V-0.00195312Z" fill="white"/>
<path d="M21.0459 4.77734C21.0459 4.77734 21.0534 17.0756 21.0534 17.6344C21.0534 18.5395 22.1598 22.6969 27.9025 22.6969C33.6452 22.6969 34.5615 18.5498 34.5615 17.6664V10.3168L30.1567 5.70686V17.1941C30.1567 17.4256 30.1746 18.5931 27.8874 18.5931C25.5147 18.5931 25.5147 17.4425 25.5147 17.1631V4.78581L21.0459 4.77734Z" fill="#00457D"/>
<path d="M30.6045 4.78216L34.7996 9.12586H37.8355V22.4279H42.4182V9.12586H45.9604V4.78027L30.6045 4.78216Z" fill="#00457D"/>
<path d="M18.7267 18.6392L22.4777 22.4532H17.4237L9.17561 13.8646H14.0443L15.3464 15.1977C15.5681 14.6681 15.674 14.0971 15.6568 13.5231C15.6486 12.2813 15.1474 11.0935 14.2634 10.2212C13.3795 9.34894 12.1852 8.86352 10.9434 8.87175C9.70154 8.87998 8.51382 9.3812 7.64152 10.2651C6.76923 11.1491 6.2838 12.3433 6.29204 13.5852C6.29751 14.8223 6.79345 16.0068 7.67107 16.8788C8.5487 17.7508 9.73634 18.2391 10.9735 18.2365C11.2558 18.2497 11.5384 18.218 11.8108 18.1425C11.8541 18.1293 15.2175 21.7533 15.1921 21.7712C13.9022 22.4821 12.4457 22.8352 10.9735 22.7938C8.58138 22.7496 6.30296 21.7649 4.63157 20.053C2.96017 18.3411 2.03032 16.0398 2.04335 13.6473C2.09202 11.2576 3.08185 8.98376 4.79771 7.31984C6.51357 5.65592 8.8168 4.73644 11.2068 4.76123C13.5968 4.78602 15.8805 5.75308 17.5615 7.45223C19.2425 9.15138 20.1849 11.4453 20.184 13.8355C20.1399 15.5393 19.6364 17.1997 18.7267 18.6411" fill="#00457D"/>
<path d="M58.0967 17.0427C58.0712 17.4284 58.1277 17.815 58.2623 18.1773C58.3969 18.5396 58.6067 18.8693 58.8778 19.1447C59.1489 19.4202 59.4752 19.6352 59.8353 19.7755C60.1954 19.9159 60.5811 19.9785 60.9671 19.9592C61.4619 19.9873 61.9539 19.8683 62.3812 19.6171C62.8085 19.366 63.1519 18.994 63.368 18.548H67.3025C66.5357 21.5181 63.7886 22.8052 60.9182 22.8052C56.7353 22.8052 53.8884 20.28 53.8884 15.974C53.8865 15.0715 54.0657 14.1779 54.4154 13.346C54.7652 12.5141 55.2785 11.7609 55.9247 11.131C56.571 10.5012 57.3372 10.0075 58.1778 9.67918C59.0184 9.3509 59.9163 9.19472 60.8184 9.21991C65.4218 9.21991 67.724 12.6858 67.5254 17.0418L58.0967 17.0427ZM63.3182 14.6907C63.3245 14.0141 63.0671 13.3617 62.6004 12.8718C62.1337 12.382 61.4945 12.0932 60.8184 12.0668C60.117 12.0786 59.4461 12.356 58.941 12.8429C58.4359 13.3298 58.1342 13.9901 58.0967 14.6907H63.3182Z" fill="white"/>
<path d="M71.7384 22.4317L74.5382 18.0795L72.111 14.3464L66.9365 22.4439L71.7384 22.4317ZM77.5714 13.4328L83.1993 4.74072H78.3758L75.1516 9.73265L71.9717 4.74072H67.1491L72.7714 13.4535L74.7471 16.5027L78.5724 22.4439H83.3903L77.5714 13.4328Z" fill="white"/>
<path d="M54.8491 26.3991H57.8127C58.2118 26.3844 58.6095 26.455 58.9793 26.6061C59.2494 26.7204 59.4882 26.8978 59.6755 27.1235C59.8349 27.3219 59.9489 27.5528 60.0095 27.8C60.0675 28.0216 60.0991 28.2493 60.1035 28.4783C60.0992 28.7055 60.0676 28.9313 60.0095 29.151C59.9483 29.3968 59.8343 29.6263 59.6755 29.8237C59.4881 30.0482 59.2493 30.2241 58.9793 30.3364C58.6085 30.4836 58.2113 30.5521 57.8127 30.5377H56.0251V33.1165H54.8491V26.3991ZM56.0251 29.5791H57.7468C57.8836 29.578 58.0197 29.5587 58.1514 29.5217C58.2886 29.4849 58.4177 29.423 58.5324 29.3391C58.652 29.2502 58.7487 29.1341 58.8146 29.0005C58.8923 28.834 58.9294 28.6515 58.9228 28.468C58.9289 28.2819 58.8969 28.0965 58.8287 27.9232C58.7739 27.7895 58.6866 27.6714 58.5747 27.5798C58.467 27.4949 58.3416 27.4351 58.2078 27.4048C58.0626 27.3732 57.9143 27.3578 57.7656 27.3587H56.0251V29.5791Z" fill="white"/>
<path d="M60.8542 28.2523H61.8609V29.1932H61.8797C61.9158 29.0532 61.9798 28.922 62.0679 28.8074C62.1622 28.6788 62.2729 28.563 62.3972 28.4631C62.5269 28.3597 62.6711 28.276 62.8252 28.2147C62.9776 28.1528 63.1406 28.1208 63.3051 28.1206C63.3914 28.1188 63.4778 28.1219 63.5638 28.13C63.6108 28.1366 63.6579 28.1432 63.7096 28.1479V29.1828C63.6343 29.1696 63.5572 29.1593 63.4791 29.1499C63.4026 29.1403 63.3257 29.1352 63.2486 29.1348C63.0719 29.1341 62.8972 29.1709 62.7359 29.243C62.5744 29.3175 62.4315 29.4267 62.3172 29.5629C62.1913 29.7181 62.0955 29.8955 62.035 30.086C61.9625 30.3173 61.9276 30.5587 61.9315 30.801V33.1163H60.859L60.8542 28.2523Z" fill="white"/>
<path d="M66.104 33.2472C65.7483 33.255 65.3947 33.191 65.0644 33.0591C64.772 32.9398 64.5089 32.7588 64.2929 32.5284C64.0778 32.2952 63.9143 32.0191 63.8131 31.7184C63.5936 31.0495 63.5936 30.3279 63.8131 29.659C63.9146 29.3587 64.0781 29.083 64.2929 28.8499C64.509 28.6193 64.7721 28.4377 65.0644 28.3174C65.7338 28.0615 66.4741 28.0615 67.1435 28.3174C67.4359 28.4375 67.699 28.6191 67.915 28.8499C68.1295 29.0832 68.2929 29.3588 68.3948 29.659C68.6143 30.3279 68.6143 31.0495 68.3948 31.7184C68.2932 32.019 68.1297 32.2949 67.915 32.5284C67.6992 32.759 67.436 32.94 67.1435 33.0591C66.8132 33.1911 66.4596 33.2551 66.104 33.2472ZM66.104 32.4005C66.3205 32.4055 66.5346 32.3536 66.7249 32.25C66.897 32.1524 67.0449 32.0174 67.1577 31.8548C67.2723 31.6874 67.3567 31.5011 67.407 31.3045C67.5136 30.8958 67.5136 30.4666 67.407 30.0579C67.358 29.8608 67.2735 29.6743 67.1577 29.5075C67.0444 29.3467 66.8965 29.2133 66.7249 29.1171C66.5329 29.0181 66.32 28.9665 66.104 28.9665C65.8879 28.9665 65.675 29.0181 65.483 29.1171C65.3114 29.2133 65.1635 29.3467 65.0502 29.5075C64.9344 29.6743 64.8499 29.8608 64.8009 30.0579C64.6943 30.4666 64.6943 30.8958 64.8009 31.3045C64.8512 31.5011 64.9356 31.6874 65.0502 31.8548C65.163 32.0174 65.3109 32.1524 65.483 32.25C65.6732 32.3539 65.8873 32.4062 66.104 32.4014V32.4005Z" fill="white"/>
<path d="M68.8512 28.2524H69.6509V27.8478C69.6417 27.5921 69.68 27.3369 69.7638 27.0952C69.825 26.9244 69.9286 26.7719 70.0648 26.6521C70.189 26.5501 70.3358 26.4794 70.4929 26.446C70.6584 26.4113 70.8271 26.3939 70.9962 26.3943C71.2488 26.3853 71.5016 26.4071 71.7489 26.4592V27.2975C71.6764 27.2775 71.6025 27.2633 71.5278 27.2551C71.4341 27.244 71.3399 27.239 71.2456 27.2401C71.1124 27.236 70.9812 27.2724 70.8692 27.3445C70.8117 27.3935 70.7674 27.4561 70.7403 27.5266C70.7132 27.5971 70.7041 27.6732 70.714 27.7481V28.2477H71.6266V29.0464H70.714V33.1164H69.6415V29.0511H68.8418L68.8512 28.2524Z" fill="white"/>
<path d="M73.0067 30.9621C73.0061 31.1469 73.033 31.3308 73.0867 31.5077C73.1357 31.6756 73.2172 31.8322 73.3266 31.9687C73.4359 32.1025 73.5738 32.2102 73.7302 32.2839C73.9134 32.3662 74.1127 32.4064 74.3135 32.4015C74.5811 32.4142 74.846 32.3435 75.0718 32.1992C75.275 32.0473 75.4249 31.8348 75.4998 31.5924H76.5159C76.4147 32.0848 76.1323 32.5213 75.7247 32.8154C75.527 32.959 75.3062 33.0675 75.0718 33.1363C74.8255 33.2084 74.5701 33.2446 74.3135 33.2435C73.9656 33.2498 73.62 33.1858 73.2974 33.0554C73.0109 32.937 72.754 32.7572 72.5447 32.5285C72.3362 32.2938 72.1795 32.0178 72.0847 31.7185C71.9774 31.3841 71.925 31.0347 71.9295 30.6836C71.9277 30.3489 71.9831 30.0165 72.0932 29.7004C72.1973 29.4005 72.3569 29.1229 72.5636 28.8819C72.7759 28.6357 73.04 28.4392 73.3369 28.3067C73.6338 28.1742 73.9564 28.1088 74.2815 28.1152C74.6391 28.1094 74.9926 28.1918 75.3107 28.3551C75.6054 28.5086 75.8624 28.7255 76.0634 28.9901C76.2683 29.2606 76.417 29.5692 76.5008 29.898C76.5965 30.2441 76.624 30.6055 76.5818 30.9621H73.0067ZM75.5083 30.2565C75.4966 30.089 75.4604 29.9242 75.401 29.7672C75.3448 29.617 75.2616 29.4783 75.1555 29.358C75.0498 29.2401 74.922 29.1441 74.7792 29.0757C74.6253 29.0024 74.4566 28.9653 74.2862 28.9675C74.1103 28.965 73.9358 28.9986 73.7734 29.0663C73.6237 29.1284 73.4887 29.2214 73.3774 29.3392C73.2658 29.4587 73.1765 29.5973 73.1139 29.7484C73.0475 29.9098 73.0112 30.082 73.0067 30.2565H75.5083Z" fill="white"/>
<path d="M78.0871 31.5548C78.089 31.6851 78.1225 31.8131 78.1846 31.9278C78.2467 32.0425 78.3355 32.1404 78.4436 32.2133C78.6695 32.3436 78.9271 32.4087 79.1878 32.4015C79.3026 32.4002 79.4173 32.3923 79.5312 32.378C79.6552 32.3632 79.7768 32.3332 79.8934 32.2886C79.9999 32.25 80.095 32.1853 80.17 32.1004C80.2456 32.0061 80.2811 31.8858 80.2688 31.7655C80.2679 31.702 80.2543 31.6394 80.2285 31.5813C80.2028 31.5233 80.1656 31.471 80.1192 31.4278C80.0139 31.3329 79.8903 31.2606 79.7561 31.2151C79.5921 31.1578 79.4242 31.1125 79.2537 31.0797C79.0655 31.042 78.8739 31.0013 78.6788 30.9574C78.4836 30.9144 78.2907 30.861 78.1012 30.7974C77.9226 30.7385 77.7541 30.6525 77.6016 30.5425C77.454 30.4355 77.3332 30.2957 77.2488 30.1341C77.156 29.9423 77.1111 29.7309 77.118 29.5179C77.1086 29.2824 77.1746 29.0501 77.3062 28.8546C77.4351 28.6759 77.6022 28.528 77.7954 28.4219C78.0008 28.3093 78.2233 28.2311 78.454 28.1904C78.6819 28.1489 78.9129 28.1271 79.1445 28.1255C79.387 28.1244 79.6288 28.1512 79.8652 28.2055C80.0852 28.2559 80.2951 28.343 80.4861 28.4633C80.6718 28.5852 80.829 28.7456 80.9471 28.9337C81.0752 29.1438 81.154 29.3802 81.1776 29.6252H80.0628C80.0505 29.5167 80.0119 29.4129 79.9505 29.3227C79.889 29.2326 79.8064 29.1588 79.71 29.1077C79.5106 29.0166 79.2932 28.9715 79.074 28.976C78.9846 28.9767 78.8954 28.983 78.8068 28.9948C78.7071 29.0062 78.6092 29.0296 78.5151 29.0644C78.428 29.0967 78.3492 29.1482 78.2846 29.215C78.2203 29.2858 78.1865 29.3791 78.1906 29.4746C78.1887 29.5347 78.1999 29.5944 78.2235 29.6496C78.247 29.7049 78.2823 29.7543 78.327 29.7945C78.4323 29.8842 78.554 29.9526 78.6854 29.9958C78.8495 30.0543 79.0177 30.1002 79.1888 30.1332C79.3769 30.1708 79.5707 30.2113 79.7721 30.2555C79.9656 30.2992 80.1568 30.3526 80.345 30.4154C80.5251 30.4733 80.6952 30.5587 80.8493 30.6685C80.9964 30.7762 81.1184 30.9145 81.2068 31.074C81.3028 31.2598 81.3498 31.4671 81.3432 31.6761C81.3512 31.9349 81.2825 32.1902 81.1456 32.41C81.0144 32.6098 80.8389 32.7769 80.6329 32.8982C80.4157 33.0269 80.1789 33.1194 79.932 33.172C79.6814 33.2274 79.4256 33.2554 79.169 33.2557C78.8835 33.2581 78.5989 33.2236 78.3223 33.1532C78.0784 33.0916 77.8483 32.9847 77.6439 32.838C77.4549 32.6993 77.3007 32.5187 77.1933 32.3102C77.0778 32.0782 77.0179 31.8224 77.0183 31.5632L78.0871 31.5548Z" fill="white"/>
<path d="M82.8504 31.5548C82.8523 31.6853 82.8858 31.8133 82.9481 31.928C83.0103 32.0427 83.0995 32.1406 83.2079 32.2133C83.4333 32.3439 83.6907 32.4091 83.9511 32.4015C84.0659 32.4002 84.1806 32.3923 84.2945 32.378C84.4185 32.3632 84.5401 32.3332 84.6567 32.2886C84.7632 32.25 84.8583 32.1853 84.9333 32.1004C85.0089 32.0061 85.0444 31.8858 85.0321 31.7655C85.0313 31.702 85.0176 31.6394 84.9919 31.5813C84.9661 31.5233 84.929 31.471 84.8825 31.4278C84.7774 31.3331 84.6542 31.2608 84.5203 31.2151C84.356 31.1579 84.1878 31.1126 84.017 31.0797C83.8288 31.042 83.6407 31.0016 83.4431 30.9573C83.2475 30.9146 83.0543 30.8612 82.8645 30.7974C82.6861 30.7387 82.5179 30.6527 82.3659 30.5425C82.2178 30.436 82.0969 30.2961 82.0131 30.1341C81.9194 29.9426 81.8742 29.731 81.8813 29.5179C81.8719 29.2824 81.9379 29.0501 82.0695 28.8546C82.1987 28.6761 82.3657 28.5283 82.5587 28.4219C82.7641 28.3093 82.9866 28.2311 83.2173 28.1904C83.4455 28.1488 83.6768 28.1271 83.9088 28.1255C84.151 28.1245 84.3925 28.1513 84.6285 28.2055C84.8485 28.2558 85.0584 28.343 85.2494 28.4633C85.4351 28.5852 85.5923 28.7456 85.7104 28.9337C85.8385 29.1438 85.9173 29.3802 85.9409 29.6252H84.8214C84.8091 29.5167 84.7705 29.4129 84.7091 29.3227C84.6476 29.2326 84.565 29.1588 84.4686 29.1077C84.2692 29.0166 84.0518 28.9715 83.8326 28.976C83.7432 28.9767 83.654 28.983 83.5654 28.9948C83.4657 29.0062 83.3678 29.0296 83.2737 29.0644C83.1866 29.0967 83.1078 29.1482 83.0432 29.215C82.9788 29.2857 82.945 29.3791 82.9492 29.4746C82.9471 29.5347 82.9582 29.5945 82.9818 29.6497C83.0054 29.705 83.0408 29.7544 83.0856 29.7945C83.1904 29.8844 83.3119 29.9528 83.4431 29.9958C83.6071 30.0543 83.7754 30.1002 83.9464 30.1332C84.1346 30.1708 84.3284 30.2113 84.5297 30.2555C84.7311 30.2997 84.9154 30.3496 85.1036 30.4154C85.2834 30.4735 85.4531 30.5589 85.6069 30.6685C85.7541 30.7762 85.8761 30.9145 85.9645 31.074C86.0605 31.2598 86.1074 31.4671 86.1009 31.6761C86.1089 31.9349 86.0401 32.1902 85.9033 32.41C85.7723 32.61 85.5968 32.7771 85.3906 32.8982C85.1733 33.0269 84.9366 33.1194 84.6897 33.172C84.4394 33.2273 84.1839 33.2554 83.9276 33.2557C83.6421 33.258 83.3575 33.2236 83.0809 33.1532C82.8372 33.0918 82.6074 32.9849 82.4035 32.838C82.2139 32.6997 82.0592 32.519 81.9519 32.3102C81.8363 32.0783 81.7766 31.8224 81.7779 31.5632L82.8504 31.5548Z" fill="white"/>
<path d="M86.8298 26.3992H87.9024V27.4152H86.8298V26.3992ZM86.8298 28.2526H87.9024V33.1165H86.8298V28.2526Z" fill="white"/>
<path d="M91.1764 33.2472C90.8223 33.2546 90.4703 33.1906 90.1415 33.0591C89.8489 32.9398 89.5854 32.7588 89.3691 32.5284C89.1543 32.2951 88.9912 32.0191 88.8902 31.7184C88.6694 31.0497 88.6694 30.3277 88.8902 29.659C88.9913 29.3587 89.1544 29.083 89.3691 28.8499C89.5856 28.6193 89.8489 28.4377 90.1415 28.3174C90.8109 28.0615 91.5512 28.0615 92.2207 28.3174C92.5128 28.4379 92.7758 28.6195 92.9921 28.8499C93.2067 29.083 93.3699 29.3587 93.471 29.659C93.6918 30.3277 93.6918 31.0497 93.471 31.7184C93.37 32.0191 93.2069 32.2951 92.9921 32.5284C92.776 32.7586 92.5129 32.9395 92.2207 33.0591C91.8888 33.1916 91.5336 33.2556 91.1764 33.2472ZM91.1764 32.4005C91.3927 32.4056 91.6065 32.3537 91.7964 32.25C91.9687 32.1528 92.1167 32.0177 92.2291 31.8548C92.3441 31.6874 92.4288 31.5011 92.4794 31.3045C92.5847 30.8956 92.5847 30.4667 92.4794 30.0579C92.4301 29.8608 92.3453 29.6742 92.2291 29.5075C92.116 29.3465 91.9681 29.2131 91.7964 29.1171C91.6045 29.0181 91.3918 28.9665 91.1759 28.9665C90.96 28.9665 90.7473 29.0181 90.5554 29.1171C90.3838 29.2133 90.2359 29.3467 90.1227 29.5075C90.0065 29.6742 89.9217 29.8608 89.8724 30.0579C89.7671 30.4667 89.7671 30.8956 89.8724 31.3045C89.923 31.5011 90.0077 31.6874 90.1227 31.8548C90.2354 32.0174 90.3833 32.1524 90.5554 32.25C90.7455 32.3541 90.9597 32.4064 91.1764 32.4014V32.4005Z" fill="white"/>
<path d="M94.4026 28.2525H95.4196V28.9675L95.4384 28.9864C95.5935 28.7233 95.8135 28.5043 96.0772 28.3504C96.343 28.1967 96.6452 28.1174 96.9522 28.1208C97.4096 28.095 97.8598 28.2428 98.2129 28.5348C98.3748 28.6962 98.4999 28.8908 98.5795 29.1052C98.6591 29.3196 98.6913 29.5486 98.6739 29.7766V33.1165H97.6013V30.0589C97.6157 29.7619 97.5299 29.4686 97.3577 29.2263C97.2661 29.1342 97.1555 29.0634 97.0336 29.0187C96.9117 28.974 96.7814 28.9565 96.6521 28.9675C96.4838 28.9645 96.3168 28.9983 96.1628 29.0663C96.0215 29.1289 95.8959 29.2221 95.795 29.3392C95.6919 29.4598 95.6121 29.5986 95.5598 29.7484C95.5031 29.9085 95.4748 30.0772 95.4761 30.247V33.1165H94.4026V28.2525Z" fill="white"/>
<path d="M103.754 32.0336C103.747 32.1306 103.765 32.2278 103.806 32.3159C103.829 32.3466 103.86 32.3706 103.896 32.3855C103.931 32.4003 103.97 32.4055 104.008 32.4005H104.121C104.172 32.3997 104.222 32.3931 104.272 32.3808V33.124C104.234 33.1372 104.185 33.1513 104.126 33.1664C104.067 33.1814 104.005 33.1974 103.938 33.2087C103.876 33.2217 103.813 33.2314 103.75 33.2379C103.686 33.2435 103.634 33.2463 103.59 33.2463C103.399 33.2538 103.21 33.2086 103.044 33.1156C102.967 33.063 102.902 32.9946 102.853 32.9149C102.804 32.8353 102.773 32.7462 102.762 32.6536C102.54 32.8658 102.271 33.0211 101.976 33.1062C101.685 33.1969 101.382 33.2442 101.078 33.2463C100.864 33.2473 100.652 33.2175 100.447 33.1579C100.256 33.1025 100.076 33.013 99.9157 32.8935C99.7612 32.7765 99.6357 32.6256 99.5488 32.4523C99.4542 32.2576 99.4074 32.0431 99.4124 31.8267C99.4017 31.5715 99.4585 31.3181 99.577 31.0919C99.6811 30.9102 99.8302 30.7582 100.01 30.6506C100.196 30.5405 100.4 30.4623 100.612 30.4192C100.835 30.3728 101.059 30.3367 101.285 30.311C101.479 30.274 101.664 30.2474 101.84 30.231C101.999 30.2192 102.156 30.1924 102.31 30.1511C102.43 30.1219 102.54 30.0623 102.63 29.978C102.672 29.9301 102.704 29.8741 102.725 29.8135C102.745 29.7529 102.753 29.6889 102.748 29.6252C102.753 29.5042 102.718 29.3849 102.649 29.2855C102.585 29.1997 102.501 29.1307 102.404 29.0842C102.302 29.0357 102.192 29.0039 102.08 28.9901C101.967 28.9747 101.854 28.9669 101.741 28.9666C101.48 28.9557 101.222 29.0211 100.998 29.1548C100.901 29.2191 100.82 29.3055 100.763 29.4069C100.706 29.5083 100.673 29.6217 100.668 29.7381H99.5959C99.6032 29.4628 99.6809 29.1939 99.8216 28.9572C99.9493 28.7546 100.121 28.5837 100.325 28.4576C100.538 28.3297 100.772 28.2405 101.016 28.1942C101.277 28.1447 101.542 28.1198 101.807 28.1199C102.044 28.1201 102.28 28.145 102.512 28.1942C102.733 28.2406 102.945 28.3235 103.138 28.4397C103.319 28.5484 103.472 28.6983 103.585 28.8772C103.704 29.0758 103.763 29.3045 103.754 29.5358V32.0336ZM102.682 30.6798C102.5 30.7911 102.293 30.8557 102.08 30.868C101.842 30.8896 101.603 30.9235 101.365 30.9621C101.253 30.9814 101.143 31.0081 101.035 31.042C100.934 31.0744 100.839 31.1223 100.753 31.1841C100.672 31.2458 100.607 31.3266 100.565 31.4193C100.515 31.53 100.491 31.6507 100.494 31.7721C100.491 31.8817 100.528 31.9887 100.598 32.0731C100.667 32.1522 100.752 32.2162 100.847 32.2613C100.949 32.3078 101.056 32.3395 101.167 32.3554C101.271 32.3731 101.377 32.3826 101.482 32.3836C101.612 32.3822 101.741 32.3664 101.868 32.3366C102.006 32.3046 102.138 32.2503 102.258 32.1757C102.379 32.1039 102.483 32.0078 102.564 31.8935C102.649 31.7669 102.692 31.6168 102.686 31.4644L102.682 30.6798Z" fill="white"/>
<path d="M104.817 26.3992H105.89V33.1165H104.817V26.3992Z" fill="white"/>
<path d="M113.502 32.0336C113.495 32.1305 113.512 32.2275 113.553 32.3159C113.576 32.3466 113.607 32.3706 113.643 32.3854C113.679 32.4003 113.718 32.4055 113.756 32.4005H113.868C113.919 32.3996 113.97 32.393 114.019 32.3808V33.124C113.981 33.1372 113.933 33.1513 113.873 33.1664C113.814 33.1814 113.752 33.1974 113.685 33.2087C113.623 33.2217 113.56 33.2314 113.497 33.2379C113.434 33.2435 113.381 33.2463 113.336 33.2463C113.146 33.2542 112.957 33.2089 112.792 33.1156C112.714 33.063 112.649 32.9946 112.601 32.9149C112.552 32.8353 112.521 32.7462 112.509 32.6536C112.288 32.866 112.018 33.0213 111.724 33.1062C111.433 33.1969 111.13 33.2442 110.825 33.2463C110.612 33.2473 110.4 33.2175 110.195 33.1579C110.004 33.1025 109.824 33.0129 109.664 32.8935C109.509 32.7768 109.383 32.6258 109.296 32.4523C109.202 32.2574 109.155 32.043 109.16 31.8267C109.149 31.5714 109.206 31.3178 109.326 31.0919C109.429 30.91 109.579 30.758 109.758 30.6506C109.945 30.5404 110.148 30.4622 110.36 30.4192C110.583 30.3728 110.807 30.3367 111.033 30.311C111.227 30.2743 111.409 30.248 111.587 30.231C111.746 30.2191 111.904 30.1923 112.058 30.1511C112.177 30.1219 112.287 30.0623 112.377 29.978C112.419 29.9301 112.451 29.8741 112.471 29.8135C112.492 29.7529 112.499 29.6889 112.494 29.6252C112.5 29.5041 112.465 29.3847 112.395 29.2855C112.332 29.1996 112.248 29.1305 112.152 29.0842C112.049 29.0358 111.939 29.0041 111.826 28.9901C111.714 28.9747 111.601 28.9669 111.488 28.9666C111.228 28.9556 110.969 29.021 110.745 29.1548C110.648 29.2189 110.567 29.3052 110.51 29.4066C110.452 29.508 110.42 29.6216 110.415 29.7381H109.343C109.35 29.4626 109.428 29.1936 109.569 28.9572C109.697 28.7544 109.869 28.5835 110.073 28.4576C110.286 28.3294 110.52 28.2402 110.764 28.1942C111.024 28.1447 111.289 28.1198 111.553 28.1199C111.791 28.12 112.027 28.1449 112.259 28.1942C112.48 28.2404 112.691 28.3234 112.885 28.4397C113.066 28.5486 113.219 28.6984 113.332 28.8772C113.451 29.0758 113.51 29.3045 113.502 29.5358V32.0336ZM112.426 30.6798C112.244 30.7909 112.037 30.8556 111.823 30.868C111.585 30.8896 111.347 30.9235 111.109 30.9621C110.998 30.9813 110.888 31.008 110.78 31.042C110.679 31.074 110.584 31.122 110.498 31.1841C110.416 31.2455 110.352 31.3264 110.31 31.4193C110.259 31.5299 110.235 31.6506 110.239 31.7721C110.236 31.8816 110.272 31.9885 110.342 32.0731C110.411 32.1522 110.497 32.2162 110.592 32.2613C110.693 32.308 110.801 32.3397 110.911 32.3554C111.015 32.3731 111.12 32.3825 111.226 32.3836C111.356 32.3822 111.485 32.3664 111.612 32.3366C111.75 32.3046 111.882 32.2503 112.003 32.1757C112.123 32.1036 112.227 32.0075 112.309 31.8935C112.393 31.7667 112.436 31.6167 112.431 31.4644L112.426 30.6798Z" fill="white"/>
<path d="M114.536 28.2525H115.552V28.9675L115.571 28.9863C115.727 28.7235 115.947 28.5046 116.211 28.3503C116.476 28.1965 116.778 28.1172 117.085 28.1208C117.543 28.0951 117.993 28.243 118.346 28.5347C118.508 28.6962 118.633 28.8908 118.713 29.1051C118.792 29.3195 118.825 29.5486 118.807 29.7766V33.1165H117.735V30.0588C117.749 29.7616 117.663 29.4682 117.49 29.2262C117.399 29.134 117.288 29.0631 117.166 29.0184C117.044 28.9737 116.914 28.9563 116.784 28.9675C116.616 28.9647 116.449 28.9984 116.295 29.0663C116.154 29.1291 116.029 29.2223 115.928 29.3391C115.825 29.4598 115.745 29.5986 115.693 29.7484C115.636 29.9084 115.607 30.0771 115.608 30.247V33.1165H114.536V28.2525Z" fill="white"/>
<path d="M124.395 33.1165H123.379V32.458H123.361C123.228 32.7281 123.005 32.943 122.73 33.0648C122.455 33.1867 122.156 33.2489 121.855 33.2473C121.51 33.2553 121.168 33.1865 120.853 33.046C120.578 32.9189 120.335 32.7307 120.143 32.4956C119.949 32.252 119.805 31.9721 119.72 31.6724C119.623 31.3408 119.576 30.9969 119.578 30.6516C119.57 30.2645 119.63 29.879 119.757 29.5132C119.859 29.2206 120.019 28.9516 120.228 28.723C120.416 28.5219 120.648 28.3656 120.905 28.2657C121.153 28.1706 121.416 28.1215 121.681 28.1208C121.836 28.1212 121.99 28.1354 122.142 28.1632C122.298 28.1903 122.449 28.2361 122.594 28.2996C122.737 28.3613 122.871 28.4417 122.994 28.5386C123.114 28.635 123.218 28.7515 123.299 28.8829H123.318V26.3992H124.391L124.395 33.1165ZM120.651 30.7354C120.651 30.9421 120.678 31.148 120.731 31.3478C120.78 31.5397 120.863 31.7213 120.976 31.8841C121.085 32.0398 121.228 32.1685 121.394 32.2604C121.584 32.3548 121.793 32.4032 122.005 32.4015C122.216 32.3999 122.425 32.3483 122.613 32.251C122.782 32.1531 122.927 32.018 123.036 31.8559C123.148 31.6877 123.231 31.5016 123.281 31.3055C123.334 31.1012 123.361 30.891 123.361 30.6798C123.388 30.2305 123.26 29.7854 122.998 29.4192C122.802 29.1945 122.535 29.0429 122.241 28.9891C121.947 28.9353 121.644 28.9824 121.38 29.1228C121.211 29.2239 121.066 29.3618 120.957 29.5264C120.844 29.6986 120.765 29.8899 120.722 30.0909C120.674 30.3024 120.651 30.5186 120.651 30.7354Z" fill="white"/>
<path d="M55.5387 39.4294C55.5381 39.6142 55.565 39.7981 55.6187 39.975C55.6685 40.1426 55.7499 40.2991 55.8586 40.436C55.9683 40.5699 56.1065 40.6775 56.2631 40.7512C56.4463 40.8337 56.6456 40.8738 56.8464 40.8688C57.1122 40.8807 57.3751 40.81 57.5991 40.6665C57.8026 40.5148 57.9525 40.3023 58.0271 40.0597H59.0432C58.9418 40.5518 58.6599 40.9881 58.2529 41.2828C58.0535 41.4267 57.8307 41.5353 57.5944 41.6036C57.3499 41.6752 57.0964 41.7114 56.8417 41.7108C56.4938 41.7172 56.1482 41.6532 55.8256 41.5227C55.539 41.4046 55.282 41.2247 55.073 40.9958C54.8642 40.7611 54.7071 40.4851 54.612 40.1858C54.5052 39.8513 54.4528 39.5019 54.4568 39.1509C54.4548 38.8161 54.5105 38.4836 54.6214 38.1677C54.7252 37.8677 54.8848 37.59 55.0918 37.3492C55.3039 37.1029 55.5677 36.9064 55.8645 36.7739C56.1614 36.6413 56.4838 36.576 56.8088 36.5825C57.1667 36.5766 57.5205 36.659 57.839 36.8224C58.1335 36.9761 58.3905 37.1929 58.5916 37.4574C58.7961 37.7281 58.9448 38.0367 59.0291 38.3653C59.1206 38.7103 59.1445 39.0697 59.0996 39.4237L55.5387 39.4294ZM58.0412 38.7238C58.0292 38.5563 57.9927 38.3915 57.933 38.2345C57.8774 38.0842 57.7945 37.9455 57.6884 37.8253C57.5828 37.7074 57.4549 37.6114 57.3121 37.543C57.1579 37.4697 56.9889 37.4326 56.8182 37.4348C56.6423 37.4324 56.4678 37.466 56.3054 37.5336C56.1561 37.5959 56.0215 37.6889 55.9103 37.8065C55.7984 37.9258 55.7091 38.0644 55.6469 38.2157C55.5802 38.3771 55.5435 38.5492 55.5387 38.7238H58.0412Z" fill="white"/>
<path d="M61.1186 39.0247L59.4336 36.7197H60.7319L61.748 38.2156L62.8111 36.7197H64.053L62.3972 38.9673L64.2571 41.5837H62.9682L61.7358 39.7868L60.541 41.5837H59.2803L61.1186 39.0247Z" fill="white"/>
<path d="M65.4266 39.4292C65.4259 39.614 65.4529 39.7979 65.5065 39.9748C65.556 40.1425 65.6374 40.2991 65.7464 40.4358C65.856 40.5699 65.9942 40.6776 66.151 40.751C66.3341 40.8335 66.5335 40.8736 66.7343 40.8686C67 40.8802 67.2628 40.8096 67.4869 40.6663C67.6904 40.5146 67.8404 40.3021 67.915 40.0595H68.9311C68.8797 40.3111 68.7807 40.5506 68.6394 40.7651C68.5055 40.9671 68.3366 41.1435 68.1408 41.2863C67.9412 41.4301 67.7185 41.5386 67.4822 41.6071C67.2378 41.6788 66.9843 41.7149 66.7296 41.7144C66.3817 41.7209 66.036 41.6569 65.7135 41.5262C65.4286 41.4075 65.1732 41.2277 64.9656 40.9994C64.7568 40.7647 64.5997 40.4887 64.5046 40.1893C64.3978 39.8549 64.3454 39.5055 64.3493 39.1544C64.3474 38.8197 64.4031 38.4871 64.514 38.1713C64.6174 37.8711 64.777 37.5933 64.9844 37.3528C65.1968 37.1065 65.4611 36.9103 65.7582 36.778C66.0554 36.6458 66.3781 36.5809 66.7032 36.5879C67.0627 36.5814 67.4182 36.6638 67.7381 36.8278C68.0327 36.9816 68.2897 37.1984 68.4908 37.4629C68.6949 37.7338 68.8436 38.0423 68.9282 38.3707C69.0188 38.7159 69.0427 39.0751 68.9988 39.4292H65.4266ZM67.9291 38.7236C67.917 38.5561 67.8806 38.3913 67.8209 38.2343C67.7653 38.084 67.6824 37.9453 67.5763 37.8251C67.4707 37.7072 67.3428 37.6112 67.2 37.5428C67.0457 37.4696 66.8768 37.4326 66.7061 37.4346C66.5302 37.4322 66.3557 37.4658 66.1933 37.5334C66.0437 37.5953 65.909 37.6883 65.7982 37.8063C65.6863 37.9256 65.597 38.0642 65.5347 38.2155C65.468 38.3769 65.4314 38.549 65.4266 38.7236H67.9291Z" fill="white"/>
<path d="M72.9812 38.3465C72.9688 38.2146 72.9304 38.0866 72.8682 37.9697C72.8061 37.8528 72.7214 37.7493 72.619 37.6653C72.4018 37.5049 72.1362 37.4235 71.8664 37.4348C71.7163 37.4367 71.5673 37.4605 71.4242 37.5054C71.2606 37.5566 71.112 37.647 70.9914 37.7688C70.8444 37.9215 70.7321 38.1041 70.6621 38.3041C70.5652 38.5934 70.5206 38.8977 70.5304 39.2026C70.5306 39.4057 70.5543 39.608 70.601 39.8057C70.6437 39.9961 70.7202 40.1774 70.8268 40.341C70.9294 40.4969 71.0661 40.6276 71.2266 40.723C71.4072 40.8246 71.6122 40.875 71.8193 40.8688C71.9616 40.8736 72.1034 40.8503 72.2366 40.8C72.3698 40.7498 72.4918 40.6737 72.5955 40.5762C72.8107 40.3543 72.9435 40.0655 72.9718 39.7577H74.0443C73.9839 40.3123 73.7289 40.8276 73.3246 41.2122C72.9031 41.5615 72.3662 41.7407 71.8193 41.7146C71.4727 41.7232 71.1282 41.6591 70.8079 41.5264C70.527 41.406 70.2751 41.2267 70.0694 41.0005C69.8662 40.7676 69.7131 40.4954 69.6197 40.2008C69.514 39.8787 69.4615 39.5416 69.4645 39.2026C69.4618 38.8554 69.5126 38.5098 69.615 38.1781C69.7073 37.8727 69.861 37.5894 70.0666 37.3455C70.2729 37.1066 70.5301 36.9169 70.8192 36.7904C71.1504 36.6486 71.5081 36.5796 71.8682 36.5881C72.14 36.5867 72.4107 36.6228 72.6726 36.6954C72.9158 36.7633 73.145 36.8735 73.35 37.0209C73.5486 37.1661 73.7138 37.3522 73.8345 37.5665C73.9657 37.807 74.0427 38.0732 74.0603 38.3465H72.9812Z" fill="white"/>
<path d="M79.0777 41.5838H78.024V40.9064H78.0051C77.8694 41.1546 77.6653 41.3587 77.4171 41.4944C77.1759 41.6358 76.9018 41.7117 76.6222 41.7145C76.3707 41.7386 76.1171 41.7091 75.8779 41.6281C75.6387 41.547 75.4194 41.4161 75.2345 41.2441C74.9187 40.8359 74.7661 40.3248 74.8064 39.8103V36.7198H75.8789V39.7021C75.8472 40.023 75.9342 40.3444 76.1235 40.6053C76.2127 40.6955 76.3201 40.7657 76.4385 40.8111C76.5569 40.8566 76.6837 40.8762 76.8103 40.8687C77.0037 40.8748 77.1961 40.8395 77.3748 40.7653C77.5173 40.7009 77.643 40.6043 77.7417 40.483C77.8391 40.3597 77.9082 40.2164 77.944 40.0634C77.9858 39.8913 78.0064 39.7147 78.0051 39.5375V36.7151H79.0777V41.5838Z" fill="white"/>
<path d="M79.5923 36.7197H80.4014V35.2615H81.4739V36.7197H82.4429V37.5185H81.4739V40.116C81.4732 40.2134 81.4779 40.3108 81.488 40.4077C81.4947 40.4803 81.5172 40.5506 81.5539 40.6137C81.59 40.6724 81.6446 40.7174 81.7091 40.7417C81.7998 40.7729 81.8955 40.7873 81.9913 40.784C82.0666 40.784 82.1419 40.7821 82.2171 40.7784C82.2933 40.7756 82.369 40.7649 82.4429 40.7464V41.5743C82.3244 41.5865 82.2077 41.5988 82.0948 41.6119C81.9792 41.6245 81.863 41.6308 81.7467 41.6307C81.5167 41.637 81.287 41.6101 81.0647 41.5508C80.9117 41.5088 80.7722 41.4278 80.6601 41.3156C80.5596 41.2061 80.4912 41.071 80.4625 40.9251C80.4258 40.7486 80.4053 40.5691 80.4014 40.3889V37.5185H79.5923V36.7197Z" fill="white"/>
<path d="M83.123 34.8662H84.1956V35.8823H83.123V34.8662ZM83.123 36.7196H84.1956V41.5836H83.123V36.7196Z" fill="white"/>
<path d="M84.7593 36.7197H85.9268L87.1593 40.4547H87.1781L88.3635 36.7197H89.4708L87.7303 41.5837H86.5261L84.7593 36.7197Z" fill="white"/>
<path d="M90.8377 39.4294C90.8371 39.6142 90.864 39.7981 90.9176 39.975C90.9667 40.1429 91.0482 40.2995 91.1575 40.436C91.2669 40.5698 91.4048 40.6775 91.5612 40.7512C91.7447 40.8336 91.9443 40.8738 92.1454 40.8688C92.4127 40.8814 92.6773 40.8107 92.9028 40.6665C93.1063 40.5148 93.2562 40.3023 93.3308 40.0597H94.3469C94.2455 40.5518 93.9636 40.9881 93.5566 41.2828C93.3585 41.4261 93.1374 41.5346 92.9028 41.6036C92.6568 41.6757 92.4017 41.7118 92.1454 41.7108C91.7972 41.7172 91.4513 41.6532 91.1284 41.5227C90.8437 41.404 90.5887 41.2241 90.3814 40.9958C90.1726 40.7611 90.0155 40.4851 89.9204 40.1858C89.8131 39.8514 89.7607 39.502 89.7652 39.1509C89.7632 38.8161 89.8189 38.4836 89.9298 38.1677C90.0332 37.8675 90.1928 37.5897 90.4002 37.3492C90.6123 37.1029 90.8761 36.9064 91.1729 36.7739C91.4698 36.6413 91.7922 36.576 92.1172 36.5825C92.4748 36.5767 92.8283 36.6591 93.1464 36.8224C93.4429 36.9756 93.7019 37.1924 93.9047 37.4574C94.1089 37.7281 94.2573 38.0367 94.3413 38.3653C94.4326 38.7103 94.4569 39.0696 94.4128 39.4237L90.8377 39.4294ZM93.3402 38.7238C93.3277 38.5564 93.2913 38.3916 93.232 38.2345C93.1757 38.0846 93.0928 37.9459 92.9874 37.8253C92.8816 37.7076 92.7538 37.6117 92.6111 37.543C92.4569 37.4698 92.2879 37.4328 92.1172 37.4348C91.9413 37.4324 91.7668 37.466 91.6044 37.5336C91.4547 37.5957 91.3197 37.6887 91.2084 37.8065C91.0967 37.9258 91.0078 38.0645 90.9459 38.2157C90.8787 38.3769 90.842 38.5492 90.8377 38.7238H93.3402Z" fill="white"/>
<path d="M98.4395 39.4294C98.4389 39.6142 98.4658 39.7981 98.5195 39.975C98.5689 40.1427 98.6504 40.2993 98.7594 40.436C98.8687 40.5698 99.0066 40.6775 99.163 40.7512C99.3465 40.8336 99.5461 40.8738 99.7472 40.8688C100.015 40.8814 100.279 40.8107 100.505 40.6665C100.708 40.5148 100.858 40.3023 100.933 40.0597H101.949C101.847 40.5518 101.565 40.9881 101.158 41.2827C100.96 41.4261 100.739 41.5346 100.505 41.6036C100.259 41.6757 100.004 41.7118 99.7472 41.7108C99.3993 41.7173 99.0537 41.6533 98.7311 41.5227C98.4444 41.4048 98.1874 41.2249 97.9785 40.9958C97.7697 40.7611 97.6126 40.4851 97.5175 40.1858C97.4107 39.8513 97.3583 39.5019 97.3623 39.1509C97.3603 38.8161 97.416 38.4836 97.5269 38.1677C97.6303 37.8675 97.79 37.5897 97.9973 37.3492C98.2094 37.1029 98.4733 36.9064 98.7701 36.7739C99.0669 36.6413 99.3893 36.576 99.7143 36.5825C100.072 36.5768 100.426 36.6592 100.744 36.8224C101.041 36.9759 101.299 37.1927 101.502 37.4574C101.706 37.7283 101.855 38.0368 101.939 38.3653C102.03 38.7104 102.054 39.0696 102.01 39.4237L98.4395 39.4294ZM100.942 38.7238C100.93 38.5563 100.893 38.3916 100.834 38.2345C100.777 38.0846 100.695 37.9459 100.589 37.8253C100.484 37.7074 100.356 37.6114 100.213 37.543C100.059 37.4698 99.8897 37.4328 99.719 37.4348C99.5431 37.4324 99.3686 37.466 99.2063 37.5336C99.0565 37.5957 98.9215 37.6887 98.8102 37.8065C98.6989 37.9261 98.61 38.0647 98.5477 38.2157C98.4805 38.3769 98.4438 38.5492 98.4395 38.7238H100.942Z" fill="white"/>
<path d="M107.293 41.5836H106.277V40.925H106.258C106.126 41.1952 105.902 41.4101 105.627 41.5318C105.352 41.6538 105.054 41.716 104.752 41.7143C104.408 41.7224 104.065 41.6536 103.75 41.513C103.475 41.3859 103.232 41.1977 103.04 40.9626C102.846 40.719 102.702 40.4392 102.617 40.1394C102.521 39.8078 102.473 39.464 102.476 39.1187C102.467 38.7316 102.528 38.3461 102.654 37.9803C102.756 37.6875 102.916 37.4186 103.125 37.19C103.314 36.9889 103.545 36.8327 103.802 36.7328C104.05 36.6377 104.313 36.5886 104.578 36.5879C104.733 36.5883 104.887 36.6024 105.039 36.6302C105.195 36.6575 105.346 36.7033 105.491 36.7666C105.634 36.8284 105.769 36.9087 105.891 37.0056C106.012 37.102 106.115 37.2185 106.197 37.3499H106.215V34.8662H107.288L107.293 41.5836ZM103.548 39.2024C103.548 39.4092 103.575 39.6151 103.628 39.8149C103.677 40.0068 103.76 40.1884 103.873 40.3511C103.982 40.5068 104.125 40.6355 104.291 40.7274C104.482 40.8226 104.691 40.8714 104.904 40.8698C105.117 40.8681 105.326 40.8161 105.514 40.718C105.684 40.6201 105.828 40.485 105.938 40.3229C106.05 40.1546 106.133 39.9685 106.182 39.7725C106.236 39.5683 106.263 39.358 106.262 39.1469C106.29 38.6976 106.162 38.2525 105.9 37.8862C105.703 37.6615 105.437 37.5099 105.143 37.4561C104.849 37.4023 104.546 37.4495 104.282 37.5898C104.112 37.6906 103.967 37.8286 103.859 37.9935C103.746 38.1656 103.667 38.357 103.623 38.5579C103.575 38.7693 103.549 38.9855 103.548 39.2024Z" fill="white"/>
<path d="M112.495 41.5838H111.441V40.9064H111.423C111.287 41.1546 111.083 41.3587 110.835 41.4944C110.593 41.6358 110.319 41.7117 110.04 41.7145C109.788 41.7386 109.535 41.7091 109.295 41.6281C109.056 41.547 108.837 41.4161 108.652 41.2441C108.336 40.8359 108.184 40.3248 108.224 39.8103V36.7198H109.296V39.7021C109.265 40.023 109.352 40.3444 109.541 40.6053C109.63 40.6955 109.738 40.7657 109.856 40.8111C109.974 40.8566 110.101 40.8762 110.228 40.8687C110.421 40.8748 110.614 40.8395 110.792 40.7653C110.935 40.7009 111.06 40.6043 111.159 40.483C111.257 40.3597 111.326 40.2164 111.361 40.0634C111.403 39.8913 111.424 39.7147 111.423 39.5375V36.7151H112.495V41.5838Z" fill="white"/>
<path d="M116.728 38.3464C116.716 38.2146 116.677 38.0866 116.615 37.9697C116.553 37.8528 116.469 37.7493 116.367 37.6653C116.149 37.5048 115.884 37.4235 115.614 37.4348C115.464 37.4366 115.315 37.4603 115.172 37.5053C115.008 37.5563 114.86 37.6467 114.739 37.7687C114.592 37.9214 114.479 38.104 114.409 38.3041C114.312 38.5934 114.268 38.8977 114.278 39.2025C114.278 39.4056 114.302 39.608 114.349 39.8056C114.391 39.9962 114.468 40.1776 114.574 40.3409C114.677 40.4971 114.814 40.6278 114.974 40.7229C115.155 40.8244 115.359 40.8748 115.566 40.8687C115.708 40.8736 115.85 40.8503 115.984 40.8001C116.117 40.7499 116.239 40.6737 116.343 40.5761C116.558 40.3543 116.691 40.0654 116.719 39.7576H117.793C117.733 40.3125 117.477 40.8279 117.072 41.2121C116.65 41.5627 116.111 41.742 115.562 41.7145C115.216 41.7231 114.872 41.659 114.552 41.5263C114.271 41.4062 114.019 41.2268 113.813 41.0004C113.608 40.7698 113.453 40.4991 113.357 40.2054C113.251 39.8835 113.198 39.5462 113.202 39.2072C113.199 38.8601 113.25 38.5146 113.351 38.1827C113.444 37.8773 113.598 37.5939 113.804 37.3501C114.01 37.1112 114.267 36.9216 114.557 36.795C114.887 36.6532 115.245 36.5842 115.605 36.5927C115.876 36.5913 116.147 36.6274 116.409 36.7C116.652 36.7681 116.882 36.8782 117.087 37.0255C117.286 37.171 117.451 37.357 117.572 37.5712C117.703 37.8116 117.78 38.0778 117.798 38.3511L116.728 38.3464Z" fill="white"/>
<path d="M122.628 40.5009C122.62 40.5979 122.638 40.6951 122.68 40.7832C122.703 40.8139 122.734 40.838 122.769 40.8529C122.805 40.8678 122.844 40.8729 122.882 40.8678H122.995C123.045 40.8669 123.096 40.8603 123.145 40.8481V41.5913C123.108 41.6045 123.059 41.6186 122.999 41.6336C122.94 41.6487 122.879 41.6647 122.816 41.676C122.754 41.6888 122.691 41.6986 122.628 41.7051C122.565 41.7108 122.511 41.7136 122.468 41.7136C122.277 41.7216 122.088 41.6763 121.922 41.5828C121.845 41.5302 121.78 41.4619 121.731 41.3822C121.683 41.3026 121.652 41.2135 121.64 41.1209C121.418 41.3329 121.149 41.4882 120.854 41.5734C120.563 41.6642 120.261 41.7114 119.956 41.7136C119.743 41.7147 119.53 41.6849 119.326 41.6252C119.134 41.57 118.954 41.4804 118.794 41.3608C118.639 41.2443 118.513 41.0932 118.427 40.9196C118.332 40.7249 118.286 40.5104 118.291 40.2939C118.28 40.0388 118.336 39.7852 118.455 39.5592C118.559 39.3773 118.708 39.2253 118.888 39.1179C119.074 39.0077 119.278 38.9294 119.49 38.8865C119.712 38.8404 119.937 38.8046 120.163 38.7783C120.357 38.7413 120.542 38.7146 120.718 38.6983C120.877 38.6863 121.034 38.6596 121.188 38.6184C121.308 38.589 121.418 38.5294 121.508 38.4453C121.55 38.3972 121.582 38.3413 121.603 38.2807C121.623 38.2201 121.631 38.1561 121.626 38.0924C121.632 37.972 121.599 37.8527 121.532 37.7528C121.468 37.667 121.384 37.5979 121.287 37.5515C121.185 37.5032 121.075 37.4715 120.963 37.4574C120.85 37.4421 120.737 37.4342 120.624 37.4339C120.363 37.4229 120.105 37.4883 119.881 37.622C119.783 37.6862 119.703 37.7726 119.646 37.874C119.588 37.9754 119.556 38.089 119.551 38.2053H118.479C118.486 37.9301 118.564 37.6613 118.705 37.4245C118.832 37.2217 119.004 37.0511 119.208 36.9258C119.421 36.7969 119.655 36.7073 119.899 36.6615C120.16 36.6119 120.425 36.587 120.69 36.5872C120.927 36.5874 121.163 36.6123 121.395 36.6615C121.616 36.708 121.828 36.791 122.021 36.907C122.202 37.0159 122.355 37.1658 122.468 37.3445C122.587 37.5431 122.645 37.7718 122.637 38.0031L122.628 40.5009ZM121.552 39.1471C121.37 39.2581 121.163 39.3227 120.95 39.3353C120.711 39.3569 120.473 39.3908 120.235 39.4293C120.124 39.4485 120.014 39.4753 119.906 39.5093C119.805 39.5415 119.71 39.5894 119.624 39.6514C119.541 39.7122 119.474 39.7931 119.431 39.8866C119.381 39.9973 119.357 40.1179 119.36 40.2394C119.357 40.349 119.394 40.4562 119.464 40.5404C119.533 40.6197 119.618 40.6837 119.713 40.7286C119.815 40.7753 119.922 40.807 120.033 40.8227C120.137 40.8405 120.243 40.8499 120.348 40.8509C120.478 40.8495 120.607 40.8337 120.734 40.8039C120.872 40.7717 121.004 40.7174 121.124 40.643C121.245 40.5712 121.349 40.475 121.43 40.3607C121.515 40.234 121.557 40.084 121.552 39.9317V39.1471Z" fill="white"/>
<path d="M123.173 36.7197H123.981V35.2615H125.055V36.7197H126.023V37.5185H125.055V40.116C125.054 40.2135 125.058 40.3109 125.069 40.4077C125.075 40.4804 125.097 40.5508 125.134 40.6137C125.17 40.6725 125.225 40.7175 125.29 40.7417C125.381 40.773 125.477 40.7874 125.572 40.784C125.648 40.784 125.723 40.784 125.799 40.7784C125.875 40.7756 125.95 40.7649 126.024 40.7464V41.5743C125.905 41.5865 125.789 41.5988 125.677 41.6119C125.561 41.6244 125.445 41.6307 125.329 41.6307C125.098 41.637 124.868 41.6101 124.646 41.5508C124.493 41.5086 124.353 41.4276 124.241 41.3156C124.141 41.2059 124.073 41.0708 124.044 40.9251C124.007 40.7486 123.987 40.5691 123.982 40.3889V37.5185H123.174L123.173 36.7197Z" fill="white"/>
<path d="M126.691 34.8662H127.763V35.8823H126.691V34.8662ZM126.691 36.7196H127.763V41.5836H126.691V36.7196Z" fill="white"/>
<path d="M130.982 41.7145C130.626 41.7225 130.273 41.6585 129.943 41.5263C129.65 41.4073 129.387 41.2263 129.171 40.9957C128.956 40.7627 128.792 40.4866 128.691 40.1857C128.47 39.517 128.47 38.795 128.691 38.1263C128.792 37.8258 128.956 37.5501 129.171 37.3172C129.387 37.0864 129.65 36.9048 129.943 36.7847C130.612 36.5288 131.352 36.5288 132.022 36.7847C132.314 36.9052 132.577 37.0868 132.793 37.3172C133.008 37.5503 133.171 37.826 133.272 38.1263C133.493 38.795 133.493 39.517 133.272 40.1857C133.171 40.4863 133.008 40.7623 132.793 40.9957C132.577 41.2259 132.314 41.4068 132.022 41.5263C131.691 41.6583 131.338 41.7223 130.982 41.7145ZM130.982 40.8678C131.198 40.8729 131.412 40.821 131.602 40.7173C131.774 40.6201 131.922 40.485 132.035 40.3221C132.15 40.1549 132.235 39.9686 132.285 39.7717C132.392 39.3631 132.392 38.9339 132.285 38.5252C132.236 38.3279 132.151 38.1413 132.035 37.9748C131.922 37.8138 131.774 37.6803 131.602 37.5844C131.41 37.4854 131.198 37.4338 130.982 37.4338C130.766 37.4338 130.553 37.4854 130.361 37.5844C130.19 37.6806 130.042 37.814 129.928 37.9748C129.812 38.1414 129.728 38.328 129.679 38.5252C129.572 38.9339 129.572 39.3631 129.679 39.7717C129.729 39.9685 129.813 40.1549 129.928 40.3221C130.041 40.4847 130.189 40.6197 130.361 40.7173C130.551 40.8214 130.765 40.8737 130.982 40.8687V40.8678Z" fill="white"/>
<path d="M134.152 36.7198H135.169V37.4348L135.187 37.4536C135.343 37.1906 135.562 36.9716 135.826 36.8177C136.092 36.664 136.394 36.5847 136.701 36.5881C137.159 36.5623 137.609 36.7101 137.962 37.0021C138.124 37.1635 138.249 37.3581 138.328 37.5725C138.408 37.7868 138.44 38.0159 138.423 38.2439V41.5838H137.35V38.5262C137.365 38.2292 137.279 37.936 137.107 37.6935C137.015 37.6015 136.904 37.5307 136.783 37.486C136.661 37.4413 136.53 37.4238 136.401 37.4348C136.233 37.4318 136.066 37.4655 135.912 37.5336C135.771 37.5962 135.645 37.6894 135.544 37.8064C135.441 37.9271 135.361 38.0659 135.309 38.2157C135.252 38.3758 135.224 38.5445 135.225 38.7143V41.5838H134.152V36.7198Z" fill="white"/>
</g>
<defs>
<clipPath id="clip0_6328_4199">
<rect width="138.423" height="48" fill="white"/>
</clipPath>
</defs>
</svg>
