<svg width="32" height="32" viewBox="0 0 32 32" fill="none" xmlns="http://www.w3.org/2000/svg">
<path d="M16 0C7.16129 0 0 7.16129 0 16C0 24.8387 7.16129 32 16 32C24.8387 32 32 24.8387 32 16C32 7.16129 24.8387 0 16 0ZM16 29.9355C8.25806 29.9355 2.06452 23.7419 2.06452 16C2.06452 8.32258 8.25806 2.06452 16 2.06452C23.6774 2.06452 29.9355 8.32258 29.9355 16C29.9355 23.7419 23.6774 29.9355 16 29.9355ZM18.5806 15.6774L13.9355 14.3871C13.1613 14.1935 12.5806 13.4839 12.5806 12.6452C12.5806 11.6774 13.4194 10.8387 14.4516 10.8387H17.3548C18.0645 10.8387 18.7742 11.0968 19.2903 11.5484C19.5484 11.6774 19.8065 11.6774 20 11.4839L20.7097 10.7097C20.9032 10.5161 20.9032 10.129 20.6452 9.93548C19.7419 9.22581 18.5806 8.77419 17.3548 8.77419H17.0323V6.19355C17.0323 5.93548 16.7742 5.67742 16.5161 5.67742H15.4839C15.1613 5.67742 14.9677 5.93548 14.9677 6.19355V8.77419H14.4516C12.2581 8.77419 10.5161 10.5161 10.5161 12.6452C10.5161 14.3871 11.6774 15.871 13.3548 16.3871L18 17.6774C18.7742 17.871 19.3548 18.5806 19.3548 19.4194C19.3548 20.3871 18.5161 21.1613 17.4839 21.1613H14.5806C13.871 21.1613 13.1613 20.9677 12.6452 20.5161C12.3871 20.3871 12.129 20.3871 11.9355 20.5806L11.2258 21.3548C11.0323 21.5484 11.0323 21.9355 11.2903 22.129C12.1935 22.8387 13.3548 23.2258 14.5806 23.2258H14.9677V25.8064C14.9677 26.129 15.1613 26.3226 15.4839 26.3226H16.5161C16.7742 26.3226 17.0323 26.129 17.0323 25.8064V23.2258H17.4839C19.6774 23.2258 21.4194 21.5484 21.4194 19.4194C21.4194 17.6774 20.2581 16.129 18.5806 15.6774Z" fill="#0066B9"/>
</svg>
