<svg width="32" height="32" viewBox="0 0 32 32" fill="none" xmlns="http://www.w3.org/2000/svg">
<path d="M18.5 24.0002H13.5C12.6687 24.0002 12 23.3314 12 22.5002V12.0002H6.51875C5.40625 12.0002 4.85 10.6564 5.6375 9.86894L15.1438 0.356445C15.6125 -0.112305 16.3813 -0.112305 16.85 0.356445L26.3625 9.86894C27.15 10.6564 26.5938 12.0002 25.4813 12.0002H20V22.5002C20 23.3314 19.3312 24.0002 18.5 24.0002ZM32 23.5002V30.5002C32 31.3314 31.3312 32.0002 30.5 32.0002H1.5C0.66875 32.0002 0 31.3314 0 30.5002V23.5002C0 22.6689 0.66875 22.0002 1.5 22.0002H10V22.5002C10 24.4314 11.5688 26.0002 13.5 26.0002H18.5C20.4312 26.0002 22 24.4314 22 22.5002V22.0002H30.5C31.3312 22.0002 32 22.6689 32 23.5002ZM24.25 29.0002C24.25 28.3127 23.6875 27.7502 23 27.7502C22.3125 27.7502 21.75 28.3127 21.75 29.0002C21.75 29.6877 22.3125 30.2502 23 30.2502C23.6875 30.2502 24.25 29.6877 24.25 29.0002ZM28.25 29.0002C28.25 28.3127 27.6875 27.7502 27 27.7502C26.3125 27.7502 25.75 28.3127 25.75 29.0002C25.75 29.6877 26.3125 30.2502 27 30.2502C27.6875 30.2502 28.25 29.6877 28.25 29.0002Z" fill="#1C1C1C"/>
</svg>
