<svg width="28" height="32" viewBox="0 0 28 32" fill="none" xmlns="http://www.w3.org/2000/svg">
<path d="M25 4H22V0.75C22 0.335813 21.6642 0 21.25 0H20.75C20.3358 0 20 0.335813 20 0.75V4H8V0.75C8 0.335813 7.66419 0 7.25 0H6.75C6.33581 0 6 0.335813 6 0.75V4H3C1.34312 4 0 5.34312 0 7V29C0 30.6569 1.34312 32 3 32H25C26.6569 32 28 30.6569 28 29V7C28 5.34312 26.6569 4 25 4ZM3 6H25C25.5514 6 26 6.44863 26 7V10H2V7C2 6.44863 2.44863 6 3 6ZM25 30H3C2.44863 30 2 29.5514 2 29V12H26V29C26 29.5514 25.5514 30 25 30Z" fill="#0066B9"/>
</svg>
