<svg width="32" height="32" viewBox="0 0 32 32" fill="none" xmlns="http://www.w3.org/2000/svg">
<path d="M30.8284 3.5147L28.4853 1.17157C26.9232 -0.390492 24.3906 -0.390555 22.8284 1.17157L0.80234 23.1976L0.00940255 30.3341C-0.0967225 31.2895 0.710653 32.0968 1.6659 31.9906L8.80241 31.1977L30.8285 9.17158C32.3905 7.60945 32.3905 5.07676 30.8284 3.5147ZM24.8787 12.2928L10.875 26.2965V24.125H7.87497V21.125H5.7034L19.7071 7.12126L24.8787 12.2928ZM7.88416 29.2873L4.19697 29.697L2.3029 27.803L2.71259 24.1158L3.9534 22.875H6.12497V25.875H9.12497V28.0465L7.88416 29.2873ZM29.4142 7.75732L26.2929 10.8786L21.1213 5.70707L24.2426 2.58576C25.0242 1.8042 26.2894 1.80407 27.071 2.58576L29.4142 4.92889C30.1958 5.71051 30.1959 6.97557 29.4142 7.75732Z" fill="#1C1C1C"/>
</svg>
