<svg width="24" height="22" viewBox="0 0 24 22" fill="none" xmlns="http://www.w3.org/2000/svg">
<path d="M11.9999 5.29172L2.89451 13.3213C2.82701 13.3821 2.74076 13.4105 2.66659 13.4609V21.1667C2.66659 21.3435 2.73683 21.5131 2.86186 21.6381C2.98688 21.7631 3.15645 21.8334 3.33326 21.8334H8.66659C8.84341 21.8334 9.01297 21.7631 9.138 21.6381C9.26302 21.5131 9.33326 21.3435 9.33326 21.1667V15.8334C9.33326 15.6566 9.4035 15.487 9.52852 15.362C9.65355 15.237 9.82312 15.1667 9.99993 15.1667H13.9999C14.1767 15.1667 14.3463 15.237 14.4713 15.362C14.5964 15.487 14.6666 15.6566 14.6666 15.8334V21.1667C14.6666 21.3435 14.7368 21.5131 14.8619 21.6381C14.9869 21.7631 15.1565 21.8334 15.3333 21.8334H20.6666C20.8434 21.8334 21.013 21.7631 21.138 21.6381C21.263 21.5131 21.3333 21.3435 21.3333 21.1667V13.4626C21.2624 13.4142 21.1783 13.3867 21.1141 13.3292L11.9999 5.29172ZM23.7787 10.345L13.1145 0.928382C12.8093 0.652424 12.4125 0.499634 12.001 0.499634C11.5895 0.499634 11.1927 0.652424 10.8874 0.928382L0.22076 10.345C0.155602 10.4036 0.10261 10.4743 0.0648108 10.5533C0.027012 10.6323 0.00514712 10.718 0.000465209 10.8054C-0.0042167 10.8929 0.0083761 10.9804 0.0375242 11.063C0.0666724 11.1456 0.111805 11.2216 0.170343 11.2867L1.06243 12.2792C1.12094 12.3444 1.19171 12.3974 1.2707 12.4352C1.3497 12.473 1.43537 12.4948 1.52281 12.4995C1.61026 12.5042 1.69778 12.4916 1.78035 12.4625C1.86293 12.4333 1.93896 12.3882 2.00409 12.3296L11.5591 3.9013C11.6809 3.79385 11.8377 3.73456 12.0001 3.73456C12.1626 3.73456 12.3194 3.79385 12.4412 3.9013L21.9962 12.3292C22.0613 12.3878 22.1373 12.4329 22.2199 12.462C22.3025 12.4912 22.39 12.5038 22.4775 12.4991C22.5649 12.4944 22.6506 12.4725 22.7296 12.4347C22.8086 12.3969 22.8793 12.344 22.9378 12.2788L23.8295 11.2863C23.9476 11.1547 24.0085 10.9817 23.999 10.8052C23.9895 10.6286 23.9102 10.4631 23.7787 10.345Z" fill="#0066B9"/>
</svg>
