<svg width="32" height="29" viewBox="0 0 32 29" fill="none" xmlns="http://www.w3.org/2000/svg">
<path d="M16.0001 6.38883L3.85951 17.0949C3.76951 17.1761 3.65451 17.2138 3.55562 17.2811V27.5555C3.55562 27.7913 3.64927 28.0173 3.81597 28.184C3.98267 28.3507 4.20876 28.4444 4.44451 28.4444H11.5556C11.7914 28.4444 12.0175 28.3507 12.1842 28.184C12.3509 28.0173 12.4445 27.7913 12.4445 27.5555V20.4444C12.4445 20.2086 12.5382 19.9825 12.7049 19.8158C12.8716 19.6492 13.0977 19.5555 13.3334 19.5555H18.6667C18.9025 19.5555 19.1286 19.6492 19.2953 19.8158C19.462 19.9825 19.5556 20.2086 19.5556 20.4444V27.5555C19.5556 27.7913 19.6493 28.0173 19.816 28.184C19.9827 28.3507 20.2088 28.4444 20.4445 28.4444H27.5556C27.7914 28.4444 28.0175 28.3507 28.1842 28.184C28.3509 28.0173 28.4445 27.7913 28.4445 27.5555V17.2833C28.3501 17.2188 28.2378 17.1822 28.1523 17.1055L16.0001 6.38883ZM31.7051 13.1266L17.4862 0.571053C17.0792 0.20311 16.5501 -0.000610352 16.0015 -0.000610352C15.4528 -0.000610352 14.9237 0.20311 14.5167 0.571053L0.294509 13.1266C0.207631 13.2046 0.136975 13.299 0.0865771 13.4043C0.0361788 13.5096 0.00702558 13.6239 0.000783039 13.7405C-0.00545951 13.8571 0.0113309 13.9737 0.0501951 14.0838C0.0890592 14.194 0.149236 14.2953 0.227287 14.3822L1.41673 15.7055C1.49474 15.7924 1.58911 15.863 1.69444 15.9134C1.79976 15.9638 1.91399 15.993 2.03058 15.9992C2.14718 16.0055 2.26386 15.9887 2.37397 15.9498C2.48407 15.911 2.58544 15.8508 2.67229 15.7727L15.4123 4.53494C15.5747 4.39168 15.7838 4.31262 16.0003 4.31262C16.2169 4.31262 16.426 4.39168 16.5884 4.53494L29.3284 15.7722C29.4152 15.8502 29.5166 15.9104 29.6267 15.9493C29.7368 15.9881 29.8535 16.0049 29.9701 15.9987C30.0867 15.9924 30.2009 15.9633 30.3063 15.9129C30.4116 15.8625 30.5059 15.7918 30.584 15.7049L31.7728 14.3816C31.9302 14.2062 32.0115 13.9754 31.9988 13.7401C31.9861 13.5047 31.8804 13.2841 31.7051 13.1266Z" fill="#1C1C1C"/>
</svg>
