<svg width="32" height="32" viewBox="0 0 32 32" fill="none" xmlns="http://www.w3.org/2000/svg">
<path d="M28.25 27C28.25 27.6875 27.6875 28.25 27 28.25C26.3125 28.25 25.75 27.6875 25.75 27C25.75 26.3125 26.3125 25.75 27 25.75C27.6875 25.75 28.25 26.3125 28.25 27ZM23 25.75C22.3125 25.75 21.75 26.3125 21.75 27C21.75 27.6875 22.3125 28.25 23 28.25C23.6875 28.25 24.25 27.6875 24.25 27C24.25 26.3125 23.6875 25.75 23 25.75ZM32 22.75V29.25C32 30.7687 30.7687 32 29.25 32H2.75C1.23125 32 0 30.7687 0 29.25V22.75C0 21.2313 1.23125 20 2.75 20H10.5V13.7937H7.20625C4.98125 13.7937 3.86875 11.1 5.4375 9.525L14.2312 0.73125C15.2063 -0.24375 16.7875 -0.24375 17.7687 0.73125L26.5625 9.525C28.1375 11.1 27.0188 13.7937 24.7938 13.7937H21.5V20H29.25C30.7687 20 32 21.2313 32 22.75ZM12.5 11.7937V23.5C12.5 23.775 12.725 24 13 24H19C19.275 24 19.5 23.775 19.5 23.5V11.7937H24.7938C25.2375 11.7937 25.4625 11.2563 25.15 10.9375L16.3563 2.14375C16.1625 1.95 15.8438 1.95 15.65 2.14375L6.85625 10.9375C6.54375 11.25 6.7625 11.7937 7.2125 11.7937H12.5ZM30 22.75C30 22.3375 29.6625 22 29.25 22H21.5V23.5C21.5 24.8813 20.3813 26 19 26H13C11.6187 26 10.5 24.8813 10.5 23.5V22H2.75C2.3375 22 2 22.3375 2 22.75V29.25C2 29.6625 2.3375 30 2.75 30H29.25C29.6625 30 30 29.6625 30 29.25V22.75Z" fill="#1C1C1C"/>
</svg>
