<svg width="32" height="29" viewBox="0 0 32 29" fill="none" xmlns="http://www.w3.org/2000/svg">
<path d="M31.6399 24.4452C32.6653 26.2226 31.3781 28.4444 29.33 28.4444H2.66968C0.617627 28.4444 -0.663596 26.2192 0.359849 24.4452L13.6902 1.3325C14.7161 -0.445777 17.2857 -0.442555 18.3099 1.3325L31.6399 24.4452ZM16 19.6667C14.5886 19.6667 13.4445 20.8108 13.4445 22.2222C13.4445 23.6336 14.5886 24.7778 16 24.7778C17.4114 24.7778 18.5556 23.6336 18.5556 22.2222C18.5556 20.8108 17.4114 19.6667 16 19.6667ZM13.5737 10.4808L13.9859 18.0363C14.0051 18.3899 14.2975 18.6667 14.6515 18.6667H17.3485C17.7026 18.6667 17.9949 18.3899 18.0142 18.0363L18.4263 10.4808C18.4471 10.0989 18.1431 9.77778 17.7606 9.77778H14.2394C13.8569 9.77778 13.5529 10.0989 13.5737 10.4808Z" fill="#1C1C1C"/>
</svg>
