<svg width="32" height="32" viewBox="0 0 32 32" fill="none" xmlns="http://www.w3.org/2000/svg">
<path d="M24.2581 15.6129V16.3871C24.2581 16.8129 23.9097 17.1613 23.4839 17.1613H17.1613V23.4839C17.1613 23.9097 16.8129 24.2581 16.3871 24.2581H15.6129C15.1871 24.2581 14.8387 23.9097 14.8387 23.4839V17.1613H8.51613C8.09032 17.1613 7.74194 16.8129 7.74194 16.3871V15.6129C7.74194 15.1871 8.09032 14.8387 8.51613 14.8387H14.8387V8.51613C14.8387 8.09032 15.1871 7.74194 15.6129 7.74194H16.3871C16.8129 7.74194 17.1613 8.09032 17.1613 8.51613V14.8387H23.4839C23.9097 14.8387 24.2581 15.1871 24.2581 15.6129ZM32 16C32 24.8387 24.8387 32 16 32C7.16129 32 0 24.8387 0 16C0 7.16129 7.16129 0 16 0C24.8387 0 32 7.16129 32 16ZM29.9355 16C29.9355 8.26452 23.6581 2.06452 16 2.06452C8.26452 2.06452 2.06452 8.34194 2.06452 16C2.06452 23.7355 8.34194 29.9355 16 29.9355C23.7355 29.9355 29.9355 23.6581 29.9355 16Z" fill="#1C1C1C"/>
</svg>
