<svg width="32" height="32" viewBox="0 0 32 32" fill="none" xmlns="http://www.w3.org/2000/svg">
<path d="M28 12V4.82812C28 4.2975 27.7894 3.78937 27.4144 3.41375L24.5856 0.585625C24.2106 0.210625 23.7019 0 23.1712 0H6C4.89563 0 4 0.895625 4 2V12C1.79063 12 0 13.7906 0 16V23C0 23.5525 0.4475 24 1 24H4V30C4 31.1044 4.89563 32 6 32H26C27.1044 32 28 31.1044 28 30V24H31C31.5525 24 32 23.5525 32 23V16C32 13.7906 30.2094 12 28 12ZM24 28H8V22H24V28ZM24 14H8V4H20V7C20 7.5525 20.4475 8 21 8H24V14ZM27 18.5C26.1719 18.5 25.5 17.8281 25.5 17C25.5 16.1712 26.1719 15.5 27 15.5C27.8281 15.5 28.5 16.1712 28.5 17C28.5 17.8281 27.8281 18.5 27 18.5Z" fill="#1C1C1C"/>
</svg>
