<svg width="28" height="32" viewBox="0 0 28 32" fill="none" xmlns="http://www.w3.org/2000/svg">
<path d="M18.5 27H19.5C19.6326 27 19.7598 26.9473 19.8536 26.8536C19.9473 26.7598 20 26.6326 20 26.5V9.5C20 9.36739 19.9473 9.24021 19.8536 9.14645C19.7598 9.05268 19.6326 9 19.5 9H18.5C18.3674 9 18.2402 9.05268 18.1464 9.14645C18.0527 9.24021 18 9.36739 18 9.5V26.5C18 26.6326 18.0527 26.7598 18.1464 26.8536C18.2402 26.9473 18.3674 27 18.5 27ZM8.5 27H9.5C9.63261 27 9.75979 26.9473 9.85355 26.8536C9.94732 26.7598 10 26.6326 10 26.5V9.5C10 9.36739 9.94732 9.24021 9.85355 9.14645C9.75979 9.05268 9.63261 9 9.5 9H8.5C8.36739 9 8.24021 9.05268 8.14645 9.14645C8.05268 9.24021 8 9.36739 8 9.5V26.5C8 26.6326 8.05268 26.7598 8.14645 26.8536C8.24021 26.9473 8.36739 27 8.5 27ZM27.5 4H21L18.9 1.2C18.6206 0.827412 18.2582 0.525002 17.8416 0.316718C17.4251 0.108435 16.9657 0 16.5 0L11.5 0C11.0343 0 10.5749 0.108435 10.1584 0.316718C9.74179 0.525002 9.37944 0.827412 9.1 1.2L7 4H0.5C0.367392 4 0.240215 4.05268 0.146447 4.14645C0.0526784 4.24021 0 4.36739 0 4.5L0 5.5C0 5.63261 0.0526784 5.75979 0.146447 5.85355C0.240215 5.94732 0.367392 6 0.5 6H2V29C2 29.7956 2.31607 30.5587 2.87868 31.1213C3.44129 31.6839 4.20435 32 5 32H23C23.7956 32 24.5587 31.6839 25.1213 31.1213C25.6839 30.5587 26 29.7956 26 29V6H27.5C27.6326 6 27.7598 5.94732 27.8536 5.85355C27.9473 5.75979 28 5.63261 28 5.5V4.5C28 4.36739 27.9473 4.24021 27.8536 4.14645C27.7598 4.05268 27.6326 4 27.5 4ZM10.7 2.4C10.7935 2.27616 10.9143 2.17562 11.0531 2.10623C11.1919 2.03684 11.3448 2.00048 11.5 2H16.5C16.6552 2.00048 16.8081 2.03684 16.9469 2.10623C17.0857 2.17562 17.2065 2.27616 17.3 2.4L18.5 4H9.5L10.7 2.4ZM24 29C24 29.2652 23.8946 29.5196 23.7071 29.7071C23.5196 29.8946 23.2652 30 23 30H5C4.73478 30 4.48043 29.8946 4.29289 29.7071C4.10536 29.5196 4 29.2652 4 29V6H24V29ZM13.5 27H14.5C14.6326 27 14.7598 26.9473 14.8536 26.8536C14.9473 26.7598 15 26.6326 15 26.5V9.5C15 9.36739 14.9473 9.24021 14.8536 9.14645C14.7598 9.05268 14.6326 9 14.5 9H13.5C13.3674 9 13.2402 9.05268 13.1464 9.14645C13.0527 9.24021 13 9.36739 13 9.5V26.5C13 26.6326 13.0527 26.7598 13.1464 26.8536C13.2402 26.9473 13.3674 27 13.5 27Z" fill="#1C1C1C"/>
</svg>
