<svg width="32" height="29" viewBox="0 0 32 29" fill="none" xmlns="http://www.w3.org/2000/svg">
<path d="M30.6662 3.55556H7.18222L6.7195 1.08761C6.60122 0.457 6.05061 0 5.409 0H0.666667C0.2985 0 0 0.2985 0 0.666667V1.11111C0 1.47928 0.2985 1.77778 0.666667 1.77778H5.04L8.92483 22.497C8.35028 23.1286 8 23.9678 8 24.8889C8 26.8526 9.59189 28.4444 11.5556 28.4444C13.5192 28.4444 15.1111 26.8526 15.1111 24.8889C15.1118 24.2646 14.9473 23.6513 14.6343 23.1111H22.6991C22.3861 23.6513 22.2216 24.2646 22.2223 24.8889C22.2223 26.8526 23.8142 28.4444 25.7778 28.4444C27.7415 28.4444 29.3334 26.8526 29.3334 24.8889C29.3334 23.8893 28.9203 22.9867 28.2563 22.3407C28.1123 21.7717 27.5978 21.3333 26.9627 21.3333H10.5156L9.84889 17.7778H28.2589C28.8905 17.7778 29.4354 17.3347 29.5643 16.7164L31.9716 5.16083C32.144 4.33283 31.5119 3.55556 30.6662 3.55556ZM13.3333 24.8889C13.3333 25.8692 12.5358 26.6667 11.5556 26.6667C10.5753 26.6667 9.77778 25.8692 9.77778 24.8889C9.77778 23.9086 10.5753 23.1111 11.5556 23.1111C12.5358 23.1111 13.3333 23.9086 13.3333 24.8889ZM25.7778 26.6667C24.7975 26.6667 24 25.8692 24 24.8889C24 23.9086 24.7975 23.1111 25.7778 23.1111C26.7581 23.1111 27.5556 23.9086 27.5556 24.8889C27.5556 25.8692 26.7581 26.6667 25.7778 26.6667ZM27.8976 16H9.51556L7.51555 5.33333H30.1198L27.8976 16Z" fill="#1C1C1C"/>
</svg>
