<svg width="16" height="17" viewBox="0 0 16 17" fill="none" xmlns="http://www.w3.org/2000/svg">
<path d="M3.58151 16.5H0.264292V5.81762H3.58151V16.5ZM1.92112 4.36044C0.860377 4.36044 0 3.48185 0 2.42111C7.59231e-09 1.9116 0.202403 1.42296 0.562682 1.06268C0.922961 0.702403 1.4116 0.5 1.92112 0.5C2.43063 0.5 2.91927 0.702403 3.27955 1.06268C3.63983 1.42296 3.84223 1.9116 3.84223 2.42111C3.84223 3.48185 2.9815 4.36044 1.92112 4.36044ZM15.9968 16.5H12.6867V11.2999C12.6867 10.0606 12.6617 8.47125 10.962 8.47125C9.23735 8.47125 8.97306 9.81771 8.97306 11.2106V16.5H5.65941V5.81762H8.84091V7.27479H8.88734C9.33021 6.43549 10.412 5.54976 12.026 5.54976C15.3832 5.54976 16.0004 7.76052 16.0004 10.632V16.5H15.9968Z" fill="white"/>
</svg>
