<svg width="32" height="32" viewBox="-3 0 32 32" fill="none" xmlns="http://www.w3.org/2000/svg">
<path d="M12 6C8.69156 6 6 8.69156 6 12C6 15.3084 8.69156 18 12 18C15.3084 18 18 15.3084 18 12C18 8.69156 15.3084 6 12 6ZM12 16C9.79437 16 8 14.2056 8 12C8 9.79437 9.79437 8 12 8C14.2056 8 16 9.79437 16 12C16 14.2056 14.2056 16 12 16ZM12 0C5.37256 0 0 5.37256 0 12C0 16.8383 1.68563 18.1894 10.7668 31.3544C11.3626 32.2151 12.6373 32.2153 13.2333 31.3544C22.3144 18.1894 24 16.8383 24 12C24 5.37256 18.6274 0 12 0ZM12 29.6207C3.29406 17.0305 2 16.0309 2 12C2 9.32887 3.04019 6.81769 4.92894 4.92894C6.81769 3.04019 9.32887 2 12 2C14.6711 2 17.1823 3.04019 19.0711 4.92894C20.9598 6.81769 22 9.32887 22 12C22 16.0306 20.7067 17.0294 12 29.6207Z" fill="#0066B9"/>
</svg>
