<svg width="28" height="32" viewBox="0 0 28 32" fill="none" xmlns="http://www.w3.org/2000/svg">
<path d="M14.0001 30C12.8963 30 12.0001 29.1012 12.0001 27.9981H10.0001C10.0001 30.205 11.7951 32 14.0001 32C16.2051 32 18.0001 30.205 18.0001 27.9981H16.0001C16.0001 29.1012 15.1038 30 14.0001 30ZM27.0863 20.9256C25.3388 19.2619 24.0026 17.5206 24.0026 11.6187C24.0026 6.64437 20.0407 2.5875 15.0001 2.09687V1C15.0001 0.4475 14.5526 0 14.0001 0C13.4476 0 13.0001 0.4475 13.0001 1V2.0975C7.95943 2.58812 3.99756 6.64437 3.99756 11.6187C3.99756 17.52 2.66068 19.2619 0.91318 20.9256C0.0400549 21.7569 -0.23557 23.0138 0.210055 24.1275C0.665055 25.265 1.76006 26 3.00006 26H25.0001C26.2401 26 27.3351 25.2644 27.7901 24.1269C28.2357 23.0131 27.9594 21.7569 27.0863 20.9256ZM25.0001 24H3.00006C2.11068 24 1.66631 22.9706 2.29256 22.3744C4.47131 20.3 5.99756 17.9781 5.99756 11.6194C5.99756 7.40813 9.57693 4 14.0001 4C18.4226 4 22.0026 7.4075 22.0026 11.6187C22.0026 17.9531 23.5157 20.2875 25.7076 22.3738C26.3363 22.9731 25.8857 24 25.0001 24Z" fill="white"/>
</svg>
