<svg width="32" height="23" viewBox="0 0 32 23" fill="none" xmlns="http://www.w3.org/2000/svg">
<path d="M27.2 10.2001C29.41 10.2001 31.2 8.4101 31.2 6.2001C31.2 3.9901 29.41 2.2001 27.2 2.2001C24.99 2.2001 23.2 3.9901 23.2 6.2001C23.2 8.4101 24.99 10.2001 27.2 10.2001ZM27.2 3.8001C28.525 3.8001 29.6 4.8751 29.6 6.2001C29.6 7.5251 28.525 8.6001 27.2 8.6001C25.875 8.6001 24.8 7.5251 24.8 6.2001C24.8 4.8751 25.875 3.8001 27.2 3.8001ZM16 11.8001C19.095 11.8001 21.6 9.2951 21.6 6.2001C21.6 3.1051 19.095 0.600098 16 0.600098C12.905 0.600098 10.4 3.1051 10.4 6.2001C10.4 9.2951 12.905 11.8001 16 11.8001ZM16 2.2001C18.205 2.2001 20 3.9951 20 6.2001C20 8.4051 18.205 10.2001 16 10.2001C13.795 10.2001 12 8.4051 12 6.2001C12 3.9951 13.795 2.2001 16 2.2001ZM28.2 11.8001H26.2C25.44 11.8001 24.735 12.0401 24.145 12.4451C24.615 12.7651 25.04 13.1401 25.415 13.5651C25.66 13.4601 25.925 13.4001 26.2 13.4001H28.2C29.41 13.4001 30.4 14.4751 30.4 15.8001C30.4 16.2401 30.76 16.6001 31.2 16.6001C31.64 16.6001 32 16.2401 32 15.8001C32 13.5951 30.295 11.8001 28.2 11.8001ZM4.8 10.2001C7.01 10.2001 8.8 8.4101 8.8 6.2001C8.8 3.9901 7.01 2.2001 4.8 2.2001C2.59 2.2001 0.8 3.9901 0.8 6.2001C0.8 8.4101 2.59 10.2001 4.8 10.2001ZM4.8 3.8001C6.125 3.8001 7.2 4.8751 7.2 6.2001C7.2 7.5251 6.125 8.6001 4.8 8.6001C3.475 8.6001 2.4 7.5251 2.4 6.2001C2.4 4.8751 3.475 3.8001 4.8 3.8001ZM20.005 12.8001C18.335 12.8001 17.92 13.4001 16 13.4001C14.08 13.4001 13.665 12.8001 11.995 12.8001C10.18 12.8001 8.415 13.6101 7.38 15.1451C6.76 16.0651 6.4 17.1701 6.4 18.3601V20.6001C6.4 21.9251 7.475 23.0001 8.8 23.0001H23.2C24.525 23.0001 25.6 21.9251 25.6 20.6001V18.3601C25.6 17.1701 25.24 16.0651 24.62 15.1451C23.585 13.6101 21.82 12.8001 20.005 12.8001ZM24 20.6001C24 21.0401 23.64 21.4001 23.2 21.4001H8.8C8.36 21.4001 8 21.0401 8 20.6001V18.3601C8 17.5301 8.245 16.7251 8.705 16.0401C9.395 15.0151 10.625 14.4001 11.99 14.4001C13.36 14.4001 13.85 15.0001 16 15.0001C18.15 15.0001 18.64 14.4001 20.005 14.4001C21.37 14.4001 22.6 15.0151 23.29 16.0401C23.75 16.7251 23.995 17.5301 23.995 18.3601V20.6001H24ZM7.855 12.4451C7.26 12.0401 6.555 11.8001 5.8 11.8001H3.8C1.705 11.8001 0 13.5951 0 15.8001C0 16.2401 0.36 16.6001 0.8 16.6001C1.24 16.6001 1.6 16.2401 1.6 15.8001C1.6 14.4751 2.59 13.4001 3.8 13.4001H5.8C6.075 13.4001 6.34 13.4601 6.585 13.5651C6.96 13.1401 7.39 12.7651 7.855 12.4451Z" fill="#0066B9"/>
</svg>
