<svg xmlns="http://www.w3.org/2000/svg" width="147.132" height="51.02" viewBox="0 0 147.132 51.02"><title>qutex-logo-inverted</title><rect y="-0.002" width="51.024" height="51.024" style="fill:#fff"/><path d="M22.37,5.078s.008,13.072.008,13.666c0,.962,1.176,5.381,7.28,5.381s7.078-4.408,7.078-5.347V10.966l-4.682-4.9v12.21c0,.246.019,1.487-2.412,1.487-2.522,0-2.522-1.223-2.522-1.52V5.087Z" style="fill:#00457d"/><polygon points="32.53 5.083 36.989 9.7 40.216 9.7 40.216 23.839 45.087 23.839 45.087 9.7 48.852 9.7 48.852 5.081 32.53 5.083" style="fill:#00457d"/><path d="M19.905,19.812l3.987,4.054H18.52L9.753,14.737h5.175l1.384,1.417a4.278,4.278,0,0,0,.33-1.78,4.977,4.977,0,1,0-9.954.066,4.966,4.966,0,0,0,4.976,4.944,2.837,2.837,0,0,0,.89-.1c.046-.014,3.621,3.838,3.594,3.857a8.778,8.778,0,0,1-4.484,1.087,9.671,9.671,0,0,1-9.492-9.722,9.642,9.642,0,0,1,19.282.2,10.058,10.058,0,0,1-1.549,5.108" style="fill:#00457d"/><path d="M61.752,18.115a2.912,2.912,0,0,0,3.051,3.1,2.668,2.668,0,0,0,2.552-1.5h4.182c-.815,3.157-3.735,4.525-6.786,4.525-4.446,0-7.472-2.684-7.472-7.261A7.166,7.166,0,0,1,64.645,9.8c4.893,0,7.34,3.684,7.129,8.314Zm5.55-2.5a2.765,2.765,0,0,0-2.657-2.789,2.947,2.947,0,0,0-2.893,2.789Z" style="fill:#fff"/><path d="M76.252,23.843l2.976-4.626-2.58-3.968-5.5,8.607Zm6.2-9.565,5.982-9.239H83.307L79.88,10.345,76.5,5.039H71.374L77.35,14.3h0l2.1,3.241h0l4.066,6.315h5.121Z" style="fill:#fff"/><path d="M58.3,28.06h3.15a2.987,2.987,0,0,1,1.24.22,1.947,1.947,0,0,1,.74.55,1.85,1.85,0,0,1,.355.719,3.083,3.083,0,0,1,.1.721,3.016,3.016,0,0,1-.1.715,1.854,1.854,0,0,1-.355.715,1.929,1.929,0,0,1-.74.545,3.061,3.061,0,0,1-1.24.214h-1.9V35.2H58.3Zm1.25,3.38h1.83a1.634,1.634,0,0,0,.43-.061,1.222,1.222,0,0,0,.405-.194,1,1,0,0,0,.3-.36,1.234,1.234,0,0,0,.115-.566,1.453,1.453,0,0,0-.1-.579.926.926,0,0,0-.27-.365.98.98,0,0,0-.39-.186,2.145,2.145,0,0,0-.47-.049h-1.85Z" style="fill:#fff"/><path d="M64.683,30.03h1.07v1h.02a1.14,1.14,0,0,1,.2-.41,1.946,1.946,0,0,1,.35-.366,1.792,1.792,0,0,1,.455-.264,1.358,1.358,0,0,1,.51-.1,2.384,2.384,0,0,1,.275.01c.05.007.1.014.155.019v1.1c-.08-.014-.162-.025-.245-.035a2.055,2.055,0,0,0-.245-.016,1.322,1.322,0,0,0-.545.115,1.282,1.282,0,0,0-.445.34,1.7,1.7,0,0,0-.3.556,2.414,2.414,0,0,0-.11.76V35.2h-1.14Z" style="fill:#fff"/><path d="M70.263,35.339a2.813,2.813,0,0,1-1.105-.2,2.332,2.332,0,0,1-.82-.564,2.4,2.4,0,0,1-.51-.861,3.51,3.51,0,0,1,0-2.189,2.406,2.406,0,0,1,.51-.86,2.35,2.35,0,0,1,.82-.566,3.095,3.095,0,0,1,2.21,0,2.341,2.341,0,0,1,.82.566,2.42,2.42,0,0,1,.51.86,3.51,3.51,0,0,1,0,2.189,2.416,2.416,0,0,1-.51.861,2.323,2.323,0,0,1-.82.564A2.809,2.809,0,0,1,70.263,35.339Zm0-.9a1.316,1.316,0,0,0,.66-.16,1.4,1.4,0,0,0,.46-.42,1.844,1.844,0,0,0,.265-.585,2.624,2.624,0,0,0,0-1.325,1.776,1.776,0,0,0-.265-.585,1.4,1.4,0,0,0-.46-.415,1.441,1.441,0,0,0-1.32,0,1.4,1.4,0,0,0-.46.415,1.776,1.776,0,0,0-.265.585,2.624,2.624,0,0,0,0,1.325,1.844,1.844,0,0,0,.265.585,1.4,1.4,0,0,0,.46.42A1.316,1.316,0,0,0,70.263,34.44Z" style="fill:#fff"/><path d="M73.183,30.03h.85V29.6a2.2,2.2,0,0,1,.12-.8,1.138,1.138,0,0,1,.32-.471,1.065,1.065,0,0,1,.455-.219,2.574,2.574,0,0,1,.535-.055,3.315,3.315,0,0,1,.8.069v.891a1.506,1.506,0,0,0-.235-.045,2.308,2.308,0,0,0-.3-.016.7.7,0,0,0-.4.111.481.481,0,0,0-.165.429v.531h.97v.849h-.97V35.2h-1.14V30.879h-.85Z" style="fill:#fff"/><path d="M77.6,32.91a1.976,1.976,0,0,0,.085.58,1.421,1.421,0,0,0,.255.49,1.233,1.233,0,0,0,.429.335,1.429,1.429,0,0,0,.62.125,1.375,1.375,0,0,0,.806-.215,1.276,1.276,0,0,0,.455-.645h1.08a2.133,2.133,0,0,1-.841,1.3,2.269,2.269,0,0,1-.694.341,2.824,2.824,0,0,1-.806.114,2.748,2.748,0,0,1-1.08-.2,2.247,2.247,0,0,1-.8-.56,2.377,2.377,0,0,1-.489-.861,3.457,3.457,0,0,1-.165-1.1,3.127,3.127,0,0,1,.174-1.045,2.693,2.693,0,0,1,.5-.87,2.35,2.35,0,0,1,1.826-.815,2.314,2.314,0,0,1,1.094.255,2.393,2.393,0,0,1,.8.675,2.705,2.705,0,0,1,.465.965A2.944,2.944,0,0,1,81.4,32.91Zm2.659-.75a1.832,1.832,0,0,0-.114-.52,1.4,1.4,0,0,0-.261-.435,1.279,1.279,0,0,0-.4-.3,1.182,1.182,0,0,0-.524-.115,1.365,1.365,0,0,0-.545.105,1.224,1.224,0,0,0-.421.29,1.451,1.451,0,0,0-.28.435,1.523,1.523,0,0,0-.114.54Z" style="fill:#fff"/><path d="M83,33.54a.86.86,0,0,0,.379.7,1.5,1.5,0,0,0,.791.2,3.211,3.211,0,0,0,.365-.025,1.608,1.608,0,0,0,.385-.095.719.719,0,0,0,.294-.2.49.49,0,0,0,.105-.356.5.5,0,0,0-.159-.359,1.107,1.107,0,0,0-.386-.226,3.785,3.785,0,0,0-.534-.144q-.3-.06-.611-.13a5.925,5.925,0,0,1-.614-.17,1.955,1.955,0,0,1-.531-.271,1.252,1.252,0,0,1-.375-.434,1.4,1.4,0,0,1-.139-.655,1.178,1.178,0,0,1,.2-.705,1.578,1.578,0,0,1,.52-.46,2.278,2.278,0,0,1,.7-.246,4.253,4.253,0,0,1,.734-.069,3.355,3.355,0,0,1,.766.085,2.131,2.131,0,0,1,.66.274,1.644,1.644,0,0,1,.49.5,1.733,1.733,0,0,1,.245.735H85.1a.713.713,0,0,0-.375-.55,1.55,1.55,0,0,0-.676-.14,2.278,2.278,0,0,0-.284.02,1.326,1.326,0,0,0-.31.074.66.66,0,0,0-.245.16.386.386,0,0,0-.1.276.439.439,0,0,0,.145.34,1.134,1.134,0,0,0,.381.214,3.659,3.659,0,0,0,.535.146c.2.04.406.083.62.13a6.306,6.306,0,0,1,.609.17,1.952,1.952,0,0,1,.536.269,1.337,1.337,0,0,1,.38.431,1.305,1.305,0,0,1,.145.64,1.394,1.394,0,0,1-.21.78,1.66,1.66,0,0,1-.545.519,2.473,2.473,0,0,1-.745.291,3.779,3.779,0,0,1-.811.089,3.533,3.533,0,0,1-.9-.109,2.13,2.13,0,0,1-.721-.335,1.61,1.61,0,0,1-.479-.561,1.775,1.775,0,0,1-.186-.794Z" style="fill:#fff"/><path d="M88.063,33.54a.858.858,0,0,0,.38.7,1.489,1.489,0,0,0,.79.2,3.211,3.211,0,0,0,.365-.025,1.608,1.608,0,0,0,.385-.095.719.719,0,0,0,.294-.2.49.49,0,0,0,.105-.356.5.5,0,0,0-.159-.359,1.111,1.111,0,0,0-.385-.226,3.838,3.838,0,0,0-.535-.144c-.2-.04-.4-.083-.61-.13a5.876,5.876,0,0,1-.615-.17,1.934,1.934,0,0,1-.53-.271,1.232,1.232,0,0,1-.375-.434,1.385,1.385,0,0,1-.14-.655,1.178,1.178,0,0,1,.2-.705,1.588,1.588,0,0,1,.52-.46,2.278,2.278,0,0,1,.7-.246,4.255,4.255,0,0,1,.735-.069,3.353,3.353,0,0,1,.765.085,2.131,2.131,0,0,1,.66.274,1.644,1.644,0,0,1,.49.5,1.733,1.733,0,0,1,.245.735h-1.19a.713.713,0,0,0-.375-.55,1.55,1.55,0,0,0-.676-.14,2.278,2.278,0,0,0-.284.02,1.326,1.326,0,0,0-.31.074.66.66,0,0,0-.245.16.385.385,0,0,0-.1.276.436.436,0,0,0,.145.34,1.119,1.119,0,0,0,.38.214,3.659,3.659,0,0,0,.535.146c.2.04.406.083.62.13s.41.1.61.17a1.96,1.96,0,0,1,.535.269,1.337,1.337,0,0,1,.38.431,1.305,1.305,0,0,1,.145.64,1.394,1.394,0,0,1-.21.78,1.651,1.651,0,0,1-.545.519,2.473,2.473,0,0,1-.745.291,3.777,3.777,0,0,1-.81.089,3.535,3.535,0,0,1-.9-.109,2.116,2.116,0,0,1-.72-.335,1.6,1.6,0,0,1-.48-.561,1.761,1.761,0,0,1-.185-.794Z" style="fill:#fff"/><path d="M92.293,28.06h1.14v1.08h-1.14Zm0,1.97h1.14V35.2h-1.14Z" style="fill:#fff"/><path d="M96.913,35.339a2.806,2.806,0,0,1-1.1-.2,2.336,2.336,0,0,1-.821-.564,2.4,2.4,0,0,1-.509-.861,3.491,3.491,0,0,1,0-2.189,2.4,2.4,0,0,1,.509-.86,2.354,2.354,0,0,1,.821-.566,3.095,3.095,0,0,1,2.21,0,2.359,2.359,0,0,1,.82.566,2.4,2.4,0,0,1,.509.86,3.491,3.491,0,0,1,0,2.189,2.4,2.4,0,0,1-.509.861,2.341,2.341,0,0,1-.82.564A2.813,2.813,0,0,1,96.913,35.339Zm0-.9a1.31,1.31,0,0,0,.659-.16,1.385,1.385,0,0,0,.46-.42,1.846,1.846,0,0,0,.266-.585,2.655,2.655,0,0,0,0-1.325,1.778,1.778,0,0,0-.266-.585,1.392,1.392,0,0,0-.46-.415,1.439,1.439,0,0,0-1.319,0,1.4,1.4,0,0,0-.46.415,1.778,1.778,0,0,0-.266.585,2.655,2.655,0,0,0,0,1.325,1.846,1.846,0,0,0,.266.585,1.4,1.4,0,0,0,.46.42A1.311,1.311,0,0,0,96.913,34.44Z" style="fill:#fff"/><path d="M100.342,30.03h1.081v.76l.02.02a1.9,1.9,0,0,1,.679-.676,1.817,1.817,0,0,1,.93-.244,1.932,1.932,0,0,1,1.34.44,1.683,1.683,0,0,1,.49,1.32V35.2h-1.14V31.95a1.41,1.41,0,0,0-.259-.885.945.945,0,0,0-.75-.275,1.232,1.232,0,0,0-.52.105,1.108,1.108,0,0,0-.391.29,1.361,1.361,0,0,0-.25.435,1.552,1.552,0,0,0-.089.53V35.2h-1.141Z" style="fill:#fff"/><path d="M110.282,34.049a.6.6,0,0,0,.055.3.232.232,0,0,0,.215.09h.12a.711.711,0,0,0,.16-.021v.79c-.04.014-.092.029-.155.045s-.128.033-.2.045a1.932,1.932,0,0,1-.2.031c-.067.006-.123.009-.17.009a1.1,1.1,0,0,1-.58-.139.7.7,0,0,1-.3-.491,2.014,2.014,0,0,1-.835.481,3.284,3.284,0,0,1-.955.149,2.358,2.358,0,0,1-.67-.094,1.76,1.76,0,0,1-.565-.281,1.343,1.343,0,0,1-.39-.469,1.445,1.445,0,0,1-.145-.665,1.544,1.544,0,0,1,.175-.781,1.3,1.3,0,0,1,.46-.469,2.069,2.069,0,0,1,.64-.246q.355-.074.715-.115.31-.059.59-.085a2.7,2.7,0,0,0,.5-.085.76.76,0,0,0,.34-.184.506.506,0,0,0,.125-.375.588.588,0,0,0-.105-.361.708.708,0,0,0-.26-.214,1.127,1.127,0,0,0-.345-.1,2.693,2.693,0,0,0-.36-.025,1.427,1.427,0,0,0-.79.2.784.784,0,0,0-.35.62h-1.14a1.714,1.714,0,0,1,.24-.83,1.674,1.674,0,0,1,.535-.531,2.238,2.238,0,0,1,.735-.28,4.488,4.488,0,0,1,.84-.079,3.632,3.632,0,0,1,.75.079,2.148,2.148,0,0,1,.665.261,1.428,1.428,0,0,1,.475.465,1.274,1.274,0,0,1,.18.7Zm-1.14-1.439a1.38,1.38,0,0,1-.64.2c-.253.023-.507.059-.76.1a2.707,2.707,0,0,0-.35.085,1.083,1.083,0,0,0-.3.151.657.657,0,0,0-.2.25.853.853,0,0,0-.075.375.48.48,0,0,0,.11.32.821.821,0,0,0,.265.2,1.238,1.238,0,0,0,.34.1,2.117,2.117,0,0,0,.335.03,1.87,1.87,0,0,0,.41-.05,1.379,1.379,0,0,0,.415-.171,1.072,1.072,0,0,0,.325-.3.77.77,0,0,0,.13-.456Z" style="fill:#fff"/><path d="M111.412,28.06h1.14V35.2h-1.14Z" style="fill:#fff"/><path d="M120.643,34.049a.616.616,0,0,0,.054.3.234.234,0,0,0,.216.09h.119a.726.726,0,0,0,.161-.021v.79c-.041.014-.092.029-.155.045s-.129.033-.2.045a1.956,1.956,0,0,1-.2.031q-.1.009-.171.009a1.089,1.089,0,0,1-.579-.139.7.7,0,0,1-.3-.491,2.007,2.007,0,0,1-.835.481,3.284,3.284,0,0,1-.955.149,2.358,2.358,0,0,1-.67-.094,1.755,1.755,0,0,1-.564-.281,1.335,1.335,0,0,1-.391-.469,1.457,1.457,0,0,1-.145-.665,1.533,1.533,0,0,1,.176-.781,1.294,1.294,0,0,1,.46-.469,2.059,2.059,0,0,1,.64-.246q.354-.074.715-.115c.206-.039.4-.067.589-.085a2.727,2.727,0,0,0,.5-.085.756.756,0,0,0,.339-.184.506.506,0,0,0,.125-.375.581.581,0,0,0-.105-.361.7.7,0,0,0-.259-.214,1.142,1.142,0,0,0-.346-.1,2.689,2.689,0,0,0-.359-.025,1.425,1.425,0,0,0-.79.2.782.782,0,0,0-.351.62h-1.14a1.7,1.7,0,0,1,.241-.83,1.664,1.664,0,0,1,.535-.531,2.221,2.221,0,0,1,.735-.28,4.477,4.477,0,0,1,.839-.079,3.617,3.617,0,0,1,.75.079,2.138,2.138,0,0,1,.665.261,1.44,1.44,0,0,1,.476.465,1.274,1.274,0,0,1,.18.7ZM119.5,32.61a1.388,1.388,0,0,1-.641.2c-.253.023-.506.059-.759.1a2.668,2.668,0,0,0-.35.085,1.056,1.056,0,0,0-.3.151.648.648,0,0,0-.2.25.839.839,0,0,0-.075.375.48.48,0,0,0,.109.32.825.825,0,0,0,.266.2,1.22,1.22,0,0,0,.339.1,2.127,2.127,0,0,0,.335.03,1.87,1.87,0,0,0,.41-.05,1.385,1.385,0,0,0,.416-.171,1.084,1.084,0,0,0,.325-.3.777.777,0,0,0,.13-.456Z" style="fill:#fff"/><path d="M121.742,30.03h1.08v.76l.02.02a1.914,1.914,0,0,1,.68-.676,1.814,1.814,0,0,1,.93-.244,1.934,1.934,0,0,1,1.34.44,1.683,1.683,0,0,1,.49,1.32V35.2h-1.14V31.95a1.4,1.4,0,0,0-.26-.885.942.942,0,0,0-.75-.275,1.239,1.239,0,0,0-.52.105,1.113,1.113,0,0,0-.39.29,1.361,1.361,0,0,0-.25.435,1.553,1.553,0,0,0-.09.53V35.2h-1.14Z" style="fill:#fff"/><path d="M132.222,35.2h-1.08v-.7h-.02a1.358,1.358,0,0,1-.67.645,2.267,2.267,0,0,1-.93.194,2.472,2.472,0,0,1-1.065-.214,2.122,2.122,0,0,1-.755-.585,2.5,2.5,0,0,1-.45-.875,3.794,3.794,0,0,1-.15-1.085,3.454,3.454,0,0,1,.19-1.21,2.419,2.419,0,0,1,.5-.84,1.963,1.963,0,0,1,.72-.486,2.318,2.318,0,0,1,.825-.154,2.766,2.766,0,0,1,.49.045,2.081,2.081,0,0,1,.48.145,1.884,1.884,0,0,1,.425.254,1.435,1.435,0,0,1,.325.366h.02V28.06h1.14Zm-3.98-2.531a2.513,2.513,0,0,0,.085.651,1.767,1.767,0,0,0,.26.57,1.326,1.326,0,0,0,.445.4,1.43,1.43,0,0,0,1.295-.01,1.371,1.371,0,0,0,.45-.42,1.879,1.879,0,0,0,.26-.585,2.608,2.608,0,0,0,.085-.665,2.086,2.086,0,0,0-.385-1.34,1.407,1.407,0,0,0-1.72-.315,1.4,1.4,0,0,0-.45.429,1.782,1.782,0,0,0-.25.6A3.117,3.117,0,0,0,128.242,32.669Z" style="fill:#fff"/><path d="M59.033,41.91a1.976,1.976,0,0,0,.085.58,1.456,1.456,0,0,0,.255.49,1.237,1.237,0,0,0,.43.335,1.423,1.423,0,0,0,.62.125,1.37,1.37,0,0,0,.8-.215,1.27,1.27,0,0,0,.455-.645h1.08a2.137,2.137,0,0,1-.84,1.3,2.275,2.275,0,0,1-.7.341,2.822,2.822,0,0,1-.8.114,2.745,2.745,0,0,1-1.08-.2,2.238,2.238,0,0,1-.8-.56,2.379,2.379,0,0,1-.49-.861,3.486,3.486,0,0,1-.165-1.1,3.1,3.1,0,0,1,.175-1.045,2.675,2.675,0,0,1,.5-.87,2.346,2.346,0,0,1,1.825-.815,2.315,2.315,0,0,1,1.095.255,2.4,2.4,0,0,1,.8.675,2.722,2.722,0,0,1,.465.965,2.944,2.944,0,0,1,.075,1.125Zm2.66-.75a1.833,1.833,0,0,0-.115-.52,1.383,1.383,0,0,0-.26-.435,1.279,1.279,0,0,0-.4-.3,1.186,1.186,0,0,0-.525-.115,1.369,1.369,0,0,0-.545.105,1.229,1.229,0,0,0-.42.29,1.432,1.432,0,0,0-.28.435,1.523,1.523,0,0,0-.115.54Z" style="fill:#fff"/><path d="M64.964,41.48l-1.791-2.45h1.38l1.08,1.59,1.13-1.59h1.32l-1.76,2.389L68.3,44.2h-1.37l-1.31-1.91-1.27,1.91h-1.34Z" style="fill:#fff"/><path d="M69.543,41.91a1.976,1.976,0,0,0,.085.58,1.439,1.439,0,0,0,.255.49,1.228,1.228,0,0,0,.43.335,1.423,1.423,0,0,0,.62.125,1.374,1.374,0,0,0,.8-.215,1.27,1.27,0,0,0,.455-.645h1.08a2.143,2.143,0,0,1-.31.75,2.17,2.17,0,0,1-.53.554,2.286,2.286,0,0,1-.7.341,2.822,2.822,0,0,1-.8.114,2.741,2.741,0,0,1-1.08-.2,2.238,2.238,0,0,1-.795-.56,2.379,2.379,0,0,1-.49-.861,3.486,3.486,0,0,1-.165-1.1,3.1,3.1,0,0,1,.175-1.045,2.657,2.657,0,0,1,.5-.87A2.346,2.346,0,0,1,70.9,38.89,2.318,2.318,0,0,1,72,39.145a2.4,2.4,0,0,1,.8.675,2.739,2.739,0,0,1,.465.965,2.984,2.984,0,0,1,.075,1.125Zm2.66-.75a1.833,1.833,0,0,0-.115-.52,1.383,1.383,0,0,0-.26-.435,1.279,1.279,0,0,0-.4-.3,1.19,1.19,0,0,0-.525-.115,1.369,1.369,0,0,0-.545.105,1.211,1.211,0,0,0-.42.29,1.432,1.432,0,0,0-.28.435,1.523,1.523,0,0,0-.115.54Z" style="fill:#fff"/><path d="M77.573,40.759a1.066,1.066,0,0,0-.385-.724,1.258,1.258,0,0,0-.8-.245,1.639,1.639,0,0,0-.47.075,1.116,1.116,0,0,0-.46.28,1.566,1.566,0,0,0-.35.569,2.729,2.729,0,0,0-.14.955,2.8,2.8,0,0,0,.075.641,1.741,1.741,0,0,0,.24.569,1.31,1.31,0,0,0,.425.406,1.211,1.211,0,0,0,.63.155,1.147,1.147,0,0,0,.825-.311,1.439,1.439,0,0,0,.4-.87h1.14a2.509,2.509,0,0,1-.765,1.546,2.333,2.333,0,0,1-1.6.534,2.636,2.636,0,0,1-1.075-.2,2.269,2.269,0,0,1-.785-.559A2.392,2.392,0,0,1,74,42.73a3.309,3.309,0,0,1-.165-1.061,3.6,3.6,0,0,1,.16-1.089,2.491,2.491,0,0,1,.48-.885,2.248,2.248,0,0,1,.8-.59,2.673,2.673,0,0,1,1.115-.215,3.141,3.141,0,0,1,.855.114,2.289,2.289,0,0,1,.72.346,1.832,1.832,0,0,1,.515.58,2,2,0,0,1,.24.829Z" style="fill:#fff"/><path d="M84.053,44.2h-1.12v-.72h-.02a1.572,1.572,0,0,1-.625.625,1.705,1.705,0,0,1-.845.234,1.9,1.9,0,0,1-1.475-.5,2.209,2.209,0,0,1-.455-1.524V39.03h1.14V42.2a1.4,1.4,0,0,0,.26.96.948.948,0,0,0,.73.28,1.445,1.445,0,0,0,.6-.11,1.072,1.072,0,0,0,.39-.3,1.138,1.138,0,0,0,.215-.446,2.3,2.3,0,0,0,.065-.559v-3h1.14Z" style="fill:#fff"/><path d="M84.6,39.03h.86V37.48H86.6v1.55h1.03v.849H86.6V42.64a2.77,2.77,0,0,0,.015.31.534.534,0,0,0,.07.219.33.33,0,0,0,.165.136.835.835,0,0,0,.3.045q.12,0,.24-.006a1.167,1.167,0,0,0,.24-.034v.88c-.126.013-.25.026-.37.04a3.428,3.428,0,0,1-.37.02,2.546,2.546,0,0,1-.725-.085.971.971,0,0,1-.43-.25.858.858,0,0,1-.21-.415,3.13,3.13,0,0,1-.065-.57V39.879H84.6Z" style="fill:#fff"/><path d="M88.353,37.06h1.14v1.08h-1.14Zm0,1.97h1.14V44.2h-1.14Z" style="fill:#fff"/><path d="M90.092,39.03h1.241L92.643,43h.02l1.26-3.97H95.1l-1.85,5.17h-1.28Z" style="fill:#fff"/><path d="M96.553,41.91a1.976,1.976,0,0,0,.085.58,1.421,1.421,0,0,0,.255.49,1.233,1.233,0,0,0,.429.335,1.43,1.43,0,0,0,.621.125,1.374,1.374,0,0,0,.805-.215,1.27,1.27,0,0,0,.455-.645h1.08a2.137,2.137,0,0,1-.84,1.3,2.286,2.286,0,0,1-.695.341,2.822,2.822,0,0,1-.805.114,2.75,2.75,0,0,1-1.081-.2,2.234,2.234,0,0,1-.794-.56,2.379,2.379,0,0,1-.49-.861,3.457,3.457,0,0,1-.165-1.1,3.1,3.1,0,0,1,.175-1.045,2.657,2.657,0,0,1,.5-.87,2.346,2.346,0,0,1,1.825-.815,2.314,2.314,0,0,1,1.094.255,2.406,2.406,0,0,1,.806.675,2.72,2.72,0,0,1,.464.965,2.964,2.964,0,0,1,.076,1.125Zm2.66-.75a1.868,1.868,0,0,0-.115-.52,1.421,1.421,0,0,0-.26-.435,1.29,1.29,0,0,0-.4-.3,1.19,1.19,0,0,0-.525-.115,1.369,1.369,0,0,0-.545.105,1.224,1.224,0,0,0-.421.29,1.43,1.43,0,0,0-.279.435,1.5,1.5,0,0,0-.115.54Z" style="fill:#fff"/><path d="M104.633,41.91a1.976,1.976,0,0,0,.085.58,1.439,1.439,0,0,0,.255.49,1.233,1.233,0,0,0,.429.335,1.43,1.43,0,0,0,.621.125,1.374,1.374,0,0,0,.805-.215,1.27,1.27,0,0,0,.455-.645h1.08a2.137,2.137,0,0,1-.84,1.3,2.286,2.286,0,0,1-.695.341,2.822,2.822,0,0,1-.805.114,2.741,2.741,0,0,1-1.08-.2,2.229,2.229,0,0,1-.8-.56,2.379,2.379,0,0,1-.49-.861,3.486,3.486,0,0,1-.165-1.1,3.1,3.1,0,0,1,.175-1.045,2.657,2.657,0,0,1,.5-.87,2.346,2.346,0,0,1,1.825-.815,2.321,2.321,0,0,1,1.095.255,2.413,2.413,0,0,1,.805.675,2.739,2.739,0,0,1,.465.965,2.984,2.984,0,0,1,.075,1.125Zm2.66-.75a1.868,1.868,0,0,0-.115-.52,1.421,1.421,0,0,0-.26-.435,1.279,1.279,0,0,0-.4-.3,1.19,1.19,0,0,0-.525-.115,1.369,1.369,0,0,0-.545.105,1.224,1.224,0,0,0-.421.29,1.449,1.449,0,0,0-.279.435,1.5,1.5,0,0,0-.115.54Z" style="fill:#fff"/><path d="M114.043,44.2h-1.08v-.7h-.02a1.358,1.358,0,0,1-.67.645,2.267,2.267,0,0,1-.93.194,2.472,2.472,0,0,1-1.065-.214,2.122,2.122,0,0,1-.755-.585,2.5,2.5,0,0,1-.45-.875,3.794,3.794,0,0,1-.15-1.085,3.454,3.454,0,0,1,.19-1.21,2.413,2.413,0,0,1,.5-.84,1.963,1.963,0,0,1,.72-.486,2.318,2.318,0,0,1,.825-.154,2.766,2.766,0,0,1,.49.045,2.1,2.1,0,0,1,.48.145,1.884,1.884,0,0,1,.425.254,1.435,1.435,0,0,1,.325.366h.02V37.06h1.14Zm-3.98-2.531a2.513,2.513,0,0,0,.085.651,1.767,1.767,0,0,0,.26.57,1.326,1.326,0,0,0,.445.4,1.43,1.43,0,0,0,1.3-.01,1.371,1.371,0,0,0,.45-.42,1.9,1.9,0,0,0,.26-.585,2.608,2.608,0,0,0,.085-.665,2.086,2.086,0,0,0-.385-1.34,1.407,1.407,0,0,0-1.72-.315,1.388,1.388,0,0,0-.45.429,1.782,1.782,0,0,0-.25.6A3.117,3.117,0,0,0,110.063,41.669Z" style="fill:#fff"/><path d="M119.573,44.2h-1.12v-.72h-.02a1.572,1.572,0,0,1-.625.625,1.705,1.705,0,0,1-.845.234,1.9,1.9,0,0,1-1.475-.5,2.209,2.209,0,0,1-.455-1.524V39.03h1.14V42.2a1.4,1.4,0,0,0,.26.96.948.948,0,0,0,.73.28,1.445,1.445,0,0,0,.6-.11,1.072,1.072,0,0,0,.39-.3,1.138,1.138,0,0,0,.215-.446,2.3,2.3,0,0,0,.065-.559v-3h1.14Z" style="fill:#fff"/><path d="M124.072,40.759a1.065,1.065,0,0,0-.384-.724,1.258,1.258,0,0,0-.8-.245,1.634,1.634,0,0,0-.47.075,1.11,1.11,0,0,0-.46.28,1.567,1.567,0,0,0-.351.569,2.731,2.731,0,0,0-.139.955,2.8,2.8,0,0,0,.075.641,1.72,1.72,0,0,0,.24.569,1.3,1.3,0,0,0,.425.406,1.21,1.21,0,0,0,.629.155,1.148,1.148,0,0,0,.826-.311,1.438,1.438,0,0,0,.4-.87h1.141a2.505,2.505,0,0,1-.766,1.546,2.331,2.331,0,0,1-1.605.534,2.635,2.635,0,0,1-1.074-.2,2.26,2.26,0,0,1-.785-.559,2.377,2.377,0,0,1-.485-.845,3.282,3.282,0,0,1-.165-1.061,3.634,3.634,0,0,1,.159-1.089,2.493,2.493,0,0,1,.481-.885,2.248,2.248,0,0,1,.8-.59,2.668,2.668,0,0,1,1.114-.215,3.136,3.136,0,0,1,.855.114,2.3,2.3,0,0,1,.721.346,1.844,1.844,0,0,1,.515.58,2,2,0,0,1,.24.829Z" style="fill:#fff"/><path d="M130.343,43.049a.6.6,0,0,0,.055.3.231.231,0,0,0,.215.09h.12a.718.718,0,0,0,.16-.021v.79c-.04.014-.092.029-.155.045s-.128.033-.195.045a2.02,2.02,0,0,1-.2.031c-.067.006-.124.009-.17.009a1.091,1.091,0,0,1-.58-.139.7.7,0,0,1-.3-.491,2.02,2.02,0,0,1-.835.481,3.289,3.289,0,0,1-.955.149,2.348,2.348,0,0,1-.67-.094,1.75,1.75,0,0,1-.565-.281,1.322,1.322,0,0,1-.39-.469,1.445,1.445,0,0,1-.145-.665,1.536,1.536,0,0,1,.175-.781,1.294,1.294,0,0,1,.46-.469,2.059,2.059,0,0,1,.64-.246c.236-.049.475-.087.715-.115q.309-.059.59-.085a2.731,2.731,0,0,0,.5-.085.766.766,0,0,0,.34-.184.51.51,0,0,0,.125-.375.588.588,0,0,0-.1-.361.708.708,0,0,0-.26-.214,1.144,1.144,0,0,0-.345-.1,2.715,2.715,0,0,0-.36-.025,1.425,1.425,0,0,0-.79.2.781.781,0,0,0-.35.62h-1.14a1.717,1.717,0,0,1,.24-.83,1.651,1.651,0,0,1,.535-.53,2.2,2.2,0,0,1,.735-.281,4.48,4.48,0,0,1,.84-.079,3.632,3.632,0,0,1,.75.079,2.158,2.158,0,0,1,.665.261,1.437,1.437,0,0,1,.475.465,1.274,1.274,0,0,1,.18.7ZM129.2,41.61a1.388,1.388,0,0,1-.64.2c-.254.023-.507.059-.76.1a2.668,2.668,0,0,0-.35.085,1.069,1.069,0,0,0-.3.151.648.648,0,0,0-.205.25.853.853,0,0,0-.075.375.475.475,0,0,0,.11.32.811.811,0,0,0,.265.2,1.227,1.227,0,0,0,.34.1,2.107,2.107,0,0,0,.335.03,1.877,1.877,0,0,0,.41-.05,1.39,1.39,0,0,0,.415-.171,1.072,1.072,0,0,0,.325-.3.777.777,0,0,0,.13-.456Z" style="fill:#fff"/><path d="M130.923,39.03h.859V37.48h1.141v1.55h1.029v.849h-1.029V42.64a2.549,2.549,0,0,0,.015.31.519.519,0,0,0,.069.219.332.332,0,0,0,.166.136.829.829,0,0,0,.3.045c.08,0,.16,0,.241-.006a1.157,1.157,0,0,0,.239-.034v.88c-.126.013-.25.026-.369.04a3.442,3.442,0,0,1-.37.02,2.553,2.553,0,0,1-.726-.085.977.977,0,0,1-.43-.25.867.867,0,0,1-.21-.415,3.221,3.221,0,0,1-.065-.57V39.879h-.859Z" style="fill:#fff"/><path d="M134.662,37.06h1.14v1.08h-1.14Zm0,1.97h1.14V44.2h-1.14Z" style="fill:#fff"/><path d="M139.223,44.339a2.806,2.806,0,0,1-1.105-.2,2.323,2.323,0,0,1-.82-.564,2.387,2.387,0,0,1-.51-.861,3.491,3.491,0,0,1,0-2.189,2.392,2.392,0,0,1,.51-.86,2.341,2.341,0,0,1,.82-.566,3.095,3.095,0,0,1,2.21,0,2.359,2.359,0,0,1,.82.566,2.4,2.4,0,0,1,.509.86,3.491,3.491,0,0,1,0,2.189,2.4,2.4,0,0,1-.509.861,2.341,2.341,0,0,1-.82.564A2.813,2.813,0,0,1,139.223,44.339Zm0-.9a1.31,1.31,0,0,0,.659-.16,1.385,1.385,0,0,0,.46-.42,1.824,1.824,0,0,0,.266-.585,2.624,2.624,0,0,0,0-1.325,1.757,1.757,0,0,0-.266-.585,1.392,1.392,0,0,0-.46-.415,1.439,1.439,0,0,0-1.319,0,1.4,1.4,0,0,0-.46.415,1.756,1.756,0,0,0-.265.585,2.624,2.624,0,0,0,0,1.325,1.822,1.822,0,0,0,.265.585,1.4,1.4,0,0,0,.46.42A1.311,1.311,0,0,0,139.223,43.44Z" style="fill:#fff"/><path d="M142.592,39.03h1.081v.76l.02.02a1.9,1.9,0,0,1,.679-.676,1.817,1.817,0,0,1,.93-.244,1.932,1.932,0,0,1,1.34.44,1.683,1.683,0,0,1,.49,1.32V44.2h-1.14V40.95a1.412,1.412,0,0,0-.259-.885.945.945,0,0,0-.75-.275,1.232,1.232,0,0,0-.52.105,1.108,1.108,0,0,0-.391.29,1.361,1.361,0,0,0-.25.435,1.552,1.552,0,0,0-.089.53V44.2h-1.141Z" style="fill:#fff"/></svg>